<svg width="801" height="670" viewBox="0 0 801 670" fill="none" xmlns="http://www.w3.org/2000/svg">
<g id="undraw_insert_block_re_4t4l 1">
<path id="cadre-phone" d="M414 158.921H410.326V58.26C410.326 42.8085 404.188 27.9898 393.262 17.064C382.336 6.13809 367.518 0 352.066 0H138.802C123.35 0 108.532 6.13809 97.606 17.064C86.6801 27.9898 80.542 42.8085 80.542 58.26V610.494C80.542 625.946 86.6801 640.764 97.606 651.69C108.532 662.616 123.35 668.754 138.802 668.754H352.066C367.518 668.754 382.336 662.616 393.262 651.69C404.188 640.764 410.326 625.946 410.326 610.494V230.573H414V158.921Z" fill="#040D21"/>
<g id="screen-one">
<path id="Path 664" d="M354.417 15.157H326.578C327.858 18.2956 328.347 21.7008 328.001 25.0728C327.655 28.4447 326.485 31.6797 324.594 34.4931C322.703 37.3064 320.15 39.6116 317.158 41.2056C314.167 42.7996 310.83 43.6336 307.44 43.634H185.264C181.874 43.6335 178.537 42.7995 175.546 41.2054C172.555 39.6113 170.001 37.306 168.111 34.4927C166.22 31.6793 165.05 28.4443 164.705 25.0724C164.359 21.7006 164.848 18.2954 166.128 15.157H140.128C128.589 15.157 117.523 19.7408 109.363 27.9002C101.204 36.0595 96.62 47.1259 96.62 58.665V610.091C96.6205 621.63 101.205 632.696 109.364 640.854C117.523 649.013 128.589 653.597 140.128 653.597H354.417C360.131 653.597 365.788 652.472 371.067 650.286C376.346 648.1 381.142 644.896 385.183 640.856C389.223 636.816 392.428 632.02 394.615 626.742C396.802 621.463 397.928 615.806 397.928 610.092V610.091V58.665C397.928 47.1259 393.344 36.0595 385.185 27.9002C377.025 19.7408 365.959 15.157 354.42 15.157H354.417Z" fill="black"/>
<path id="Path 667" d="M377.185 422.82H117.252C115.976 422.819 114.752 422.311 113.849 421.409C112.947 420.506 112.439 419.282 112.438 418.006V298.654C112.439 297.378 112.947 296.154 113.849 295.252C114.752 294.349 115.976 293.841 117.252 293.84H377.185C378.461 293.841 379.685 294.349 380.588 295.252C381.49 296.154 381.998 297.378 381.999 298.654V418.007C381.997 419.283 381.49 420.507 380.587 421.409C379.685 422.311 378.461 422.819 377.185 422.82ZM117.252 295.766C116.486 295.767 115.752 296.071 115.211 296.613C114.669 297.154 114.365 297.888 114.364 298.654V418.007C114.365 418.773 114.669 419.507 115.211 420.048C115.752 420.59 116.486 420.894 117.252 420.895H377.185C377.951 420.894 378.685 420.59 379.226 420.048C379.768 419.507 380.072 418.773 380.073 418.007V298.654C380.072 297.888 379.768 297.154 379.226 296.613C378.685 296.071 377.951 295.767 377.185 295.766H117.252Z" fill="black"/>
<path id="Path 668" d="M375.256 267.824H259.734C258.458 267.823 257.234 267.315 256.331 266.413C255.429 265.51 254.921 264.286 254.92 263.01V198.531C254.921 197.255 255.429 196.031 256.331 195.129C257.234 194.226 258.458 193.718 259.734 193.717H375.256C376.532 193.718 377.756 194.226 378.659 195.129C379.561 196.031 380.069 197.255 380.07 198.531V263.009C380.069 264.286 379.561 265.51 378.659 266.412C377.756 267.315 376.533 267.823 375.256 267.824ZM259.73 195.644C258.964 195.645 258.23 195.949 257.689 196.491C257.147 197.032 256.843 197.766 256.842 198.532V263.01C256.843 263.776 257.147 264.51 257.689 265.051C258.23 265.593 258.964 265.897 259.73 265.898H375.256C376.022 265.897 376.756 265.593 377.297 265.051C377.839 264.51 378.143 263.776 378.144 263.01V198.531C378.143 197.765 377.839 197.031 377.297 196.49C376.756 195.948 376.022 195.644 375.256 195.643L259.73 195.644Z" fill="black"/>
<path id="Path 669" d="M232.778 578.779H117.252C115.976 578.778 114.752 578.27 113.849 577.367C112.947 576.465 112.439 575.241 112.438 573.965V453.65C112.44 452.374 112.947 451.15 113.85 450.248C114.752 449.346 115.976 448.838 117.252 448.837H232.778C234.054 448.838 235.278 449.346 236.18 450.248C237.083 451.15 237.59 452.374 237.592 453.65V573.966C237.591 575.242 237.083 576.466 236.181 577.368C235.278 578.271 234.054 578.779 232.778 578.78V578.779ZM117.252 450.762C116.486 450.763 115.752 451.067 115.211 451.609C114.669 452.15 114.365 452.884 114.364 453.65V573.966C114.365 574.732 114.669 575.466 115.211 576.007C115.752 576.549 116.486 576.853 117.252 576.854H232.778C233.544 576.853 234.278 576.549 234.819 576.007C235.361 575.466 235.665 574.732 235.666 573.966V453.65C235.665 452.884 235.361 452.15 234.819 451.609C234.278 451.067 233.544 450.763 232.778 450.762H117.252Z" fill="black"/>
<path id="Path 670" d="M375.256 578.779H259.734C258.458 578.778 257.234 578.27 256.331 577.367C255.429 576.465 254.921 575.241 254.92 573.965V453.65C254.922 452.374 255.429 451.15 256.332 450.248C257.234 449.346 258.458 448.838 259.734 448.837H375.256C376.532 448.838 377.756 449.346 378.659 450.248C379.561 451.151 380.069 452.375 380.07 453.651V573.966C380.069 575.242 379.561 576.466 378.659 577.368C377.756 578.271 376.532 578.779 375.256 578.78V578.779ZM259.734 450.762C258.968 450.763 258.234 451.067 257.693 451.609C257.151 452.15 256.847 452.884 256.846 453.65V573.966C256.847 574.732 257.151 575.466 257.693 576.007C258.234 576.549 258.968 576.853 259.734 576.854H375.256C376.022 576.853 376.756 576.549 377.297 576.007C377.839 575.466 378.143 574.732 378.144 573.966V453.65C378.143 452.884 377.839 452.15 377.297 451.609C376.756 451.067 376.022 450.763 375.256 450.762H259.734Z" fill="black"/>
<path id="Path 677" d="M232.676 267.836H124.303L149.803 223.661C150.26 222.869 150.918 222.212 151.709 221.754C152.501 221.297 153.399 221.057 154.313 221.057C155.228 221.057 156.126 221.297 156.918 221.754C157.709 222.212 158.367 222.869 158.824 223.661L169.719 242.532L188.247 210.443C188.819 209.452 189.642 208.628 190.634 208.056C191.625 207.483 192.749 207.182 193.894 207.182C195.039 207.182 196.163 207.483 197.154 208.056C198.146 208.628 198.969 209.452 199.541 210.443L232.676 267.836ZM127.637 265.911H229.337L197.869 211.411C197.466 210.712 196.886 210.132 196.187 209.729C195.489 209.326 194.697 209.113 193.89 209.113C193.083 209.113 192.291 209.326 191.593 209.729C190.894 210.132 190.314 210.712 189.911 211.411L169.722 246.383L157.159 224.624C156.871 224.125 156.457 223.711 155.958 223.422C155.459 223.134 154.893 222.983 154.316 222.983C153.74 222.983 153.174 223.134 152.675 223.422C152.176 223.711 151.762 224.125 151.474 224.624L127.637 265.911Z" fill="black"/>
<path id="Path 678" d="M371.307 267.836H262.934L288.434 223.661C288.891 222.869 289.549 222.212 290.34 221.754C291.132 221.297 292.03 221.057 292.944 221.057C293.859 221.057 294.757 221.297 295.549 221.754C296.34 222.212 296.998 222.869 297.455 223.661L308.349 242.532L326.878 210.443C327.45 209.452 328.273 208.628 329.265 208.056C330.256 207.483 331.38 207.182 332.525 207.182C333.67 207.182 334.794 207.483 335.785 208.056C336.777 208.628 337.6 209.452 338.172 210.443L371.307 267.836ZM266.268 265.911H367.968L336.5 211.411C336.097 210.712 335.517 210.132 334.818 209.729C334.12 209.326 333.328 209.113 332.521 209.113C331.714 209.113 330.922 209.326 330.224 209.729C329.525 210.132 328.945 210.712 328.542 211.411L308.349 246.383L295.786 224.624C295.498 224.125 295.084 223.711 294.585 223.422C294.086 223.134 293.52 222.983 292.943 222.983C292.367 222.983 291.801 223.134 291.302 223.422C290.803 223.711 290.389 224.125 290.101 224.624L266.268 265.911Z" fill="black"/>
<path id="Path 679" d="M232.778 267.824H117.252C115.976 267.823 114.752 267.315 113.849 266.413C112.947 265.51 112.439 264.286 112.438 263.01V198.531C112.439 197.255 112.947 196.031 113.849 195.129C114.752 194.226 115.976 193.718 117.252 193.717H232.778C234.054 193.718 235.278 194.226 236.181 195.129C237.083 196.031 237.591 197.255 237.592 198.531V263.009C237.591 264.285 237.083 265.509 236.181 266.412C235.278 267.314 234.054 267.822 232.778 267.823V267.824ZM117.252 195.644C116.486 195.645 115.752 195.949 115.211 196.491C114.669 197.032 114.365 197.766 114.364 198.532V263.01C114.365 263.776 114.669 264.51 115.211 265.051C115.752 265.593 116.486 265.897 117.252 265.898H232.778C233.544 265.897 234.278 265.593 234.819 265.051C235.361 264.51 235.665 263.776 235.666 263.01V198.531C235.665 197.765 235.361 197.031 234.819 196.49C234.278 195.948 233.544 195.644 232.778 195.643L117.252 195.644Z" fill="black"/>
<path id="Path 680" d="M141.869 473.649C141.002 473.649 140.171 473.993 139.558 474.606C138.945 475.219 138.601 476.05 138.601 476.917C138.601 477.784 138.945 478.615 139.558 479.228C140.171 479.841 141.002 480.185 141.869 480.185H208.162C209.029 480.185 209.86 479.841 210.473 479.228C211.086 478.615 211.43 477.784 211.43 476.917C211.43 476.05 211.086 475.219 210.473 474.606C209.86 473.993 209.029 473.649 208.162 473.649H141.869Z" fill="black"/>
<path id="Path 681" d="M141.869 492.903C141.002 492.903 140.171 493.247 139.558 493.86C138.945 494.473 138.601 495.304 138.601 496.171C138.601 497.038 138.945 497.869 139.558 498.482C140.171 499.095 141.002 499.439 141.869 499.439H208.162C209.029 499.439 209.86 499.095 210.473 498.482C211.086 497.869 211.43 497.038 211.43 496.171C211.43 495.304 211.086 494.473 210.473 493.86C209.86 493.247 209.029 492.903 208.162 492.903H141.869Z" fill="black"/>
<path id="Path 682" d="M175.016 553.967C170.948 553.967 166.971 552.761 163.588 550.501C160.205 548.24 157.569 545.028 156.012 541.269C154.455 537.511 154.048 533.375 154.841 529.385C155.635 525.394 157.594 521.729 160.47 518.852C163.347 515.975 167.012 514.016 171.002 513.223C174.992 512.429 179.128 512.836 182.887 514.393C186.646 515.949 189.858 518.586 192.119 521.968C194.379 525.351 195.586 529.328 195.586 533.396C195.58 538.85 193.411 544.078 189.555 547.935C185.698 551.791 180.47 553.961 175.016 553.967ZM175.016 514.751C171.328 514.751 167.724 515.845 164.657 517.893C161.591 519.942 159.201 522.854 157.79 526.261C156.379 529.668 156.01 533.417 156.729 537.034C157.449 540.65 159.224 543.973 161.832 546.58C164.44 549.188 167.762 550.963 171.379 551.683C174.995 552.402 178.744 552.033 182.151 550.622C185.558 549.211 188.47 546.821 190.519 543.755C192.567 540.689 193.661 537.084 193.661 533.396C193.655 528.453 191.688 523.715 188.193 520.22C184.698 516.725 179.959 514.759 175.016 514.753V514.751Z" fill="black"/>
<path id="Path 683" d="M350.647 553.969C351.076 553.969 351.501 553.885 351.898 553.72C352.294 553.556 352.654 553.315 352.958 553.012C353.261 552.708 353.502 552.348 353.666 551.952C353.83 551.555 353.915 551.13 353.915 550.701C353.915 550.272 353.83 549.847 353.666 549.451C353.502 549.054 353.261 548.694 352.958 548.39C352.654 548.087 352.294 547.846 351.898 547.682C351.501 547.518 351.076 547.433 350.647 547.433H284.347C283.48 547.433 282.649 547.777 282.036 548.39C281.423 549.003 281.079 549.834 281.079 550.701C281.079 551.568 281.423 552.399 282.036 553.012C282.649 553.625 283.48 553.969 284.347 553.969H350.647Z" fill="black"/>
<path id="Path 684" d="M350.647 534.713C351.076 534.713 351.501 534.628 351.898 534.464C352.294 534.3 352.654 534.059 352.958 533.756C353.261 533.452 353.502 533.092 353.666 532.696C353.83 532.299 353.915 531.874 353.915 531.445C353.915 531.016 353.83 530.591 353.666 530.194C353.502 529.798 353.261 529.438 352.958 529.134C352.654 528.831 352.294 528.59 351.898 528.426C351.501 528.262 351.076 528.177 350.647 528.177H284.347C283.48 528.177 282.649 528.521 282.036 529.134C281.423 529.747 281.079 530.578 281.079 531.445C281.079 532.312 281.423 533.143 282.036 533.756C282.649 534.369 283.48 534.713 284.347 534.713H350.647Z" fill="black"/>
<path id="Path 685" d="M317.497 473.649C321.565 473.649 325.542 474.855 328.925 477.116C332.308 479.376 334.944 482.588 336.501 486.347C338.058 490.106 338.465 494.242 337.672 498.232C336.878 502.222 334.919 505.887 332.042 508.764C329.165 511.641 325.5 513.6 321.51 514.394C317.52 515.187 313.384 514.78 309.625 513.223C305.867 511.666 302.654 509.03 300.394 505.647C298.133 502.264 296.927 498.287 296.927 494.219C296.933 488.765 299.103 483.537 302.959 479.681C306.815 475.824 312.043 473.655 317.497 473.649ZM317.497 512.864C321.184 512.863 324.789 511.769 327.855 509.72C330.921 507.671 333.31 504.759 334.721 501.352C336.131 497.945 336.5 494.196 335.78 490.58C335.061 486.963 333.285 483.641 330.677 481.034C328.069 478.427 324.747 476.651 321.13 475.932C317.514 475.213 313.765 475.582 310.358 476.993C306.951 478.405 304.04 480.795 301.991 483.861C299.942 486.927 298.849 490.531 298.849 494.219C298.855 499.162 300.821 503.901 304.316 507.396C307.812 510.892 312.551 512.858 317.494 512.864H317.497Z" fill="black"/>
<path id="Path 734" d="M377.185 167.702H117.252C114.595 167.702 112.442 166.463 112.438 164.936V96.3619C112.438 94.8349 114.594 93.5979 117.252 93.5959H377.185C379.842 93.5959 381.995 94.8349 381.999 96.3619V164.937C381.996 166.463 379.842 167.7 377.185 167.702ZM117.252 94.702C115.658 94.702 114.366 95.4449 114.364 96.3609V164.936C114.364 165.852 115.658 166.594 117.252 166.595H377.185C378.779 166.595 380.071 165.852 380.073 164.936V96.3619C380.073 95.4459 378.779 94.7039 377.185 94.7029L117.252 94.702Z" fill="black"/>
</g>
</g>
</svg>
