<svg width="1920" height="1024" viewBox="0 0 1920 1024" fill="none" xmlns="http://www.w3.org/2000/svg">
<g id="Desktop - 2" clip-path="url(#clip0_11_2)">
<rect width="1920" height="1024" fill="#040D21"/>
<g id="Ellipse 2" filter="url(#filter0_f_11_2)">
<ellipse cx="1821" cy="56" rx="219" ry="230" fill="#3E1D44"/>
</g>
<path id="Vector 2" d="M148.5 102.5L2.5 4.5L38 189M148.5 102.5L38 189M148.5 102.5L178 311L2.5 266.5L38 189M38 189L2.5 120.5" stroke="#052862"/>
<path id="Vector 3" d="M181 314L395.5 472L181 570.5M181 314V570.5M181 314L-3.5 359L95 445.5M181 314L95 445.5M181 570.5L8.5 558.5M181 570.5V728.5M181 570.5L130.5 615L8.5 558.5M181 570.5L95 445.5M-3.5 272.5L8.5 558.5M8.5 558.5L181 728.5M8.5 558.5L95 445.5M181 728.5L-3.5 823.5L181 880M181 728.5V880M181 728.5L71 698.5M181 880L8.5 1017.5M181 880L232 1038M-3.5 645L71 698.5M71 698.5L-3.5 773" stroke="#052862"/>
</g>
<defs>
<filter id="filter0_f_11_2" x="1402" y="-374" width="838" height="860" filterUnits="userSpaceOnUse" color-interpolation-filters="sRGB">
<feFlood flood-opacity="0" result="BackgroundImageFix"/>
<feBlend mode="normal" in="SourceGraphic" in2="BackgroundImageFix" result="shape"/>
<feGaussianBlur stdDeviation="100" result="effect1_foregroundBlur_11_2"/>
</filter>
<clipPath id="clip0_11_2">
<rect width="1920" height="1024" fill="white"/>
</clipPath>
</defs>
</svg>
