<svg width="178" height="160" viewBox="0 0 178 160" fill="none" xmlns="http://www.w3.org/2000/svg">
<g id="Group-sat" filter="url(#filter0_d_41_3)">
<g id="XMLID_29_">
<g id="Group">
<path id="Vector" d="M16.697 75.4985L18.9181 62.5574L26.5669 63.8701L24.3458 76.8112L16.697 75.4985Z" fill="#EAEEEF"/>
<path id="Vector_2" d="M44.5345 80.2671L46.7555 67.3261L54.5913 68.6709L52.3703 81.612L44.5345 80.2671Z" fill="#EAEEEF"/>
<path id="Vector_3" d="M105.688 90.7619L107.917 77.8312L115.547 79.1416L113.336 92.0756L105.688 90.7619Z" fill="#EAEEEF"/>
<path id="Vector_4" d="M133.523 95.5484L135.743 82.6076L143.579 83.9522L141.358 96.8932L133.523 95.5484Z" fill="#EAEEEF"/>
<path id="Vector_5" d="M69.1778 138.056C69.264 137.605 69.6942 137.301 70.1378 137.378C70.5988 137.457 70.9029 137.887 70.8165 138.338C70.7858 138.57 70.658 138.75 70.4779 138.877C70.3077 138.997 70.0955 139.058 69.8562 139.017C69.4132 138.94 69.1091 138.51 69.1778 138.056Z" fill="#EAEEEF"/>
<path id="Vector_6" d="M83.894 126.092L60.9487 122.154C61.5379 119.232 63.1979 116.679 65.6383 114.953C68.1785 113.157 71.269 112.458 74.3247 112.982C74.3346 112.975 74.3346 112.975 74.3346 112.975C77.3979 113.51 80.0777 115.2 81.8737 117.74C83.6001 120.18 84.3134 123.14 83.894 126.092Z" fill="#C5CBCF"/>
<path id="Vector_7" d="M70.6622 116.401C68.3811 118.013 66.7947 120.355 66.1142 123.039L83.8941 126.092C84.3128 123.141 83.5992 120.18 81.8738 117.739C80.8471 116.287 79.5257 115.125 78.0148 114.286C75.4061 114.139 72.8339 114.865 70.6622 116.401Z" fill="#EAEEEF"/>
<path id="Vector_8" d="M127.207 94.4638L119.654 93.1587L121.881 80.2285L129.427 81.5238L127.207 94.4638Z" fill="#505967"/>
<path id="Vector_9" d="M86.475 106.446L65.0592 102.762L65.6931 99.0734L87.112 102.741L86.475 106.446Z" fill="#505967"/>
<path id="Vector_10" d="M73.4771 53.7131L74.2079 49.5062L95.6178 53.1798L94.896 57.3804L73.4771 53.7131Z" fill="#505967"/>
<path id="Vector_11" d="M30.6617 77.895L32.8828 64.954L40.4287 66.249L38.2077 79.1901L30.6617 77.895Z" fill="#505967"/>
<path id="Vector_12" d="M66.7867 92.75L72.3938 60.0296L93.8096 63.7136L88.1946 96.425L66.7867 92.75Z" fill="#EAEEEF"/>
<path id="Vector_13" d="M12.4541 81.273C10.7125 80.9741 9.53872 79.3139 9.83785 77.5727L13.1429 58.3152C13.2853 57.4344 13.7785 56.7107 14.4487 56.2368C15.1187 55.7631 15.9657 55.5393 16.8436 55.6987L58.8341 62.8966C59.6708 63.0402 60.4245 63.5121 60.9125 64.2024C61.4076 64.9026 61.5941 65.7605 61.4505 66.5972L60.3723 72.8796L63.582 73.4305L68.4266 45.2541C68.576 44.3833 69.0692 43.6596 69.7394 43.1857C70.4097 42.7118 71.2564 42.4882 72.1272 42.6377L99.8696 47.399C101.611 47.6979 102.785 49.3581 102.486 51.0993L97.6413 79.2756L101.056 79.8616L102.134 73.5792C102.283 72.7085 102.769 71.9747 103.44 71.5008C104.11 71.0269 104.964 70.8133 105.834 70.9628L147.822 78.1779C149.573 78.4698 150.747 80.13 150.438 81.8782L147.133 101.136C146.834 102.877 145.174 104.051 143.433 103.752L101.442 96.5539C99.6937 96.245 98.527 94.5948 98.8191 92.8436L99.9712 86.1783L96.5639 85.6023L92.2497 110.688C91.9509 112.43 90.2907 113.604 88.5495 113.305L86.2276 112.906C86.5332 113.275 86.8321 113.634 87.1148 114.034C89.8937 117.964 90.9769 122.764 90.1623 127.51L89.6759 130.344C89.3888 132.017 87.6487 133.247 85.9757 132.96L74.4963 130.981L74.2589 132.364C76.413 133.946 77.6315 136.625 77.1509 139.425C76.4671 143.358 72.7165 146.01 68.7801 145.343C66.8098 144.996 65.1619 143.896 64.0943 142.386C63.0194 140.866 62.5247 138.935 62.8617 136.972C63.1986 135.009 64.3089 133.354 65.8189 132.286C66.4588 131.834 67.181 131.518 67.9324 131.287L68.1698 129.904L56.6974 127.935C55.8608 127.792 55.1071 127.32 54.6191 126.629C54.124 125.929 53.9303 125.061 54.0739 124.225L54.5674 121.401C55.3749 116.645 57.9935 112.498 61.9338 109.712C62.3237 109.436 62.7352 109.19 63.1463 108.944L60.8244 108.546C59.0658 108.244 57.8991 106.594 58.2011 104.836L62.5053 79.7567L59.2886 79.1959L58.153 85.8639C58.0094 86.7006 57.5303 87.4443 56.8401 87.9323C56.1399 88.4274 55.289 88.624 54.4423 88.4875L12.4541 81.273ZM18.9184 62.5565L16.6974 75.4975L24.3457 76.8102L26.5667 63.8691L18.9184 62.5565ZM69.1778 138.057C69.1087 138.51 69.4129 138.941 69.8565 139.016C70.0958 139.058 70.308 138.997 70.4782 138.877C70.6583 138.75 70.7858 138.57 70.8168 138.337C70.903 137.887 70.5988 137.456 70.1381 137.378C69.6935 137.302 69.2653 137.605 69.1778 138.057ZM60.9505 122.153L83.8957 126.091C84.3144 123.14 83.6008 120.179 81.8754 117.739C80.0794 115.198 77.3991 113.508 74.3364 112.974C74.3364 112.974 74.3364 112.974 74.3264 112.981C71.2702 112.456 68.1802 113.156 65.64 114.952C63.1991 116.678 61.5383 119.232 60.9505 122.153ZM32.8841 64.9531L30.663 77.8941L38.209 79.1892L40.43 66.2481L32.8841 64.9531ZM46.7557 67.3262L44.5347 80.2672L52.371 81.6122L54.5921 68.6711L46.7557 67.3262ZM65.0593 102.762L86.4752 106.446L87.1111 102.742L65.6922 99.0743L65.0593 102.762ZM72.3939 60.0296L66.7869 92.7503L88.1958 96.4246L93.8098 63.7139L72.3939 60.0296ZM74.2078 49.5064L73.477 53.7133L94.8959 57.3805L95.6167 53.1807L74.2078 49.5064ZM107.917 77.8309L105.689 90.7619L113.337 92.0746L115.548 79.1406L107.917 77.8309ZM119.654 93.1584L127.207 94.4635L129.427 81.5232L121.881 80.2281L119.654 93.1584ZM135.743 82.6078L133.522 95.5488L141.359 96.8929L143.58 83.9524L135.743 82.6078Z" fill="#2D213F"/>
</g>
</g>
<path id="Vector_14" d="M77.8022 101.147L65.6918 99.0742L65.0589 102.762L78.6067 105.092C78.3426 103.938 78.0699 102.62 77.8022 101.147Z" fill="#454D5B"/>
<path id="Vector_15" d="M74.2077 49.506L73.4769 53.7129L80.7261 54.9535C81.169 53.6006 81.6576 52.2398 82.1815 50.8736L74.2077 49.506Z" fill="#454D5B"/>
<path id="Vector_16" d="M78.9469 61.1565L72.3941 60.0293L66.7872 92.75L76.8374 94.4749C75.8666 85.6404 75.7911 73.8971 78.9469 61.1565Z" fill="#C5CBCF"/>
</g>
<defs>
<filter id="filter0_d_41_3" x="9.79126" y="15.5918" width="167.696" height="129.854" filterUnits="userSpaceOnUse" color-interpolation-filters="sRGB">
<feFlood flood-opacity="0" result="BackgroundImageFix"/>
<feColorMatrix in="SourceAlpha" type="matrix" values="0 0 0 0 0 0 0 0 0 0 0 0 0 0 0 0 0 0 127 0" result="hardAlpha"/>
<feOffset dx="23" dy="-23"/>
<feGaussianBlur stdDeviation="2"/>
<feComposite in2="hardAlpha" operator="out"/>
<feColorMatrix type="matrix" values="0 0 0 0 0.243137 0 0 0 0 0.113725 0 0 0 0 0.266667 0 0 0 0.13 0"/>
<feBlend mode="normal" in2="BackgroundImageFix" result="effect1_dropShadow_41_3"/>
<feBlend mode="normal" in="SourceGraphic" in2="effect1_dropShadow_41_3" result="shape"/>
</filter>
</defs>
</svg>
