<svg width="806" height="736" viewBox="0 0 806 736" fill="none" xmlns="http://www.w3.org/2000/svg">
<g clip-path="url(#clip0_63_3)">
<path d="M357.947 177.534H0.152771V406.682H357.947V177.534Z" fill="#F2F2F2"/>
<path d="M347.716 206.275H10.3839V393.125H347.716V206.275Z" fill="white"/>
<path d="M357.795 177.331H0V192.531H357.795V177.331Z" fill="#02DFBF"/>
<path d="M11.2957 187.92C12.8517 187.92 14.113 186.658 14.113 185.102C14.113 183.547 12.8517 182.285 11.2957 182.285C9.73979 182.285 8.47845 183.547 8.47845 185.102C8.47845 186.658 9.73979 187.92 11.2957 187.92Z" fill="white"/>
<path d="M21.9895 187.92C23.5454 187.92 24.8067 186.658 24.8067 185.102C24.8067 183.547 23.5454 182.285 21.9895 182.285C20.4335 182.285 19.1722 183.547 19.1722 185.102C19.1722 186.658 20.4335 187.92 21.9895 187.92Z" fill="white"/>
<path d="M32.6831 187.92C34.2391 187.92 35.5004 186.658 35.5004 185.102C35.5004 183.547 34.2391 182.285 32.6831 182.285C31.1272 182.285 29.8658 183.547 29.8658 185.102C29.8658 186.658 31.1272 187.92 32.6831 187.92Z" fill="white"/>
<path d="M127.714 225.662H41.0351V373.738H127.714V225.662Z" fill="#F2F2F2"/>
<path d="M214.908 225.662H142.676V266.421H214.908V225.662Z" fill="#02DFBF"/>
<path d="M214.908 277.772H142.676V321.627H214.908V277.772Z" fill="#F2F2F2"/>
<path d="M214.908 332.978H142.676V373.738H214.908V332.978Z" fill="#F2F2F2"/>
<path d="M317.065 225.662H230.387V290.193H317.065V225.662Z" fill="#F2F2F2"/>
<path d="M317.065 309.207H230.387V373.738H317.065V309.207Z" fill="#F2F2F2"/>
<path d="M805.947 177.534H448.153V406.682H805.947V177.534Z" fill="#F2F2F2"/>
<path d="M795.716 206.275H458.384V393.125H795.716V206.275Z" fill="white"/>
<path d="M805.795 177.331H448V192.531H805.795V177.331Z" fill="#02DFBF"/>
<path d="M459.296 187.92C460.852 187.92 462.113 186.658 462.113 185.102C462.113 183.547 460.852 182.285 459.296 182.285C457.74 182.285 456.478 183.547 456.478 185.102C456.478 186.658 457.74 187.92 459.296 187.92Z" fill="white"/>
<path d="M469.989 187.92C471.545 187.92 472.807 186.658 472.807 185.102C472.807 183.547 471.545 182.285 469.989 182.285C468.434 182.285 467.172 183.547 467.172 185.102C467.172 186.658 468.434 187.92 469.989 187.92Z" fill="white"/>
<path d="M480.683 187.92C482.239 187.92 483.5 186.658 483.5 185.102C483.5 183.547 482.239 182.285 480.683 182.285C479.127 182.285 477.866 183.547 477.866 185.102C477.866 186.658 479.127 187.92 480.683 187.92Z" fill="white"/>
<path d="M764.987 225.662H678.308V373.738H764.987V225.662Z" fill="#F2F2F2"/>
<path d="M663.947 225.659H489.113V266.419H663.947V225.659Z" fill="#02DFBF"/>
<path d="M663.947 277.77H489.113V321.625H663.947V277.77Z" fill="#F2F2F2"/>
<path d="M663.947 332.976H489.113V373.735H663.947V332.976Z" fill="#F2F2F2"/>
<path d="M400.947 0H398.947V109.268H400.947V0Z" fill="#CCCCCC"/>
<path d="M600.947 177.268H598.947V110.268H200.947V177.268H198.947V108.268H600.947V177.268Z" fill="#CCCCCC"/>
<path d="M414.662 305.468L413.157 297.938C413.157 297.938 391.007 290.409 388.529 305.468H414.662Z" fill="#E6E6E6"/>
<path d="M372.154 720.046L357.633 720.045L350.725 664.036L372.156 664.037L372.154 720.046Z" fill="#FFB8B8"/>
<path d="M375.857 734.122L329.036 734.12V733.528C329.036 728.694 330.956 724.059 334.374 720.642C337.791 717.224 342.427 715.304 347.26 715.304H347.261L375.858 715.305L375.857 734.122Z" fill="#2F2E41"/>
<path d="M422.075 720.046L436.596 720.045L443.504 664.036L422.073 664.037L422.075 720.046Z" fill="#FFB8B8"/>
<path d="M418.371 715.305L446.968 715.304H446.969C451.803 715.304 456.438 717.224 459.855 720.642C463.273 724.059 465.193 728.694 465.194 733.528V734.12L418.372 734.122L418.371 715.305Z" fill="#2F2E41"/>
<path d="M435.745 337.091L452.309 335.585L462.85 385.279L461.344 430.455L444.78 490.69L422.192 477.137L434.239 415.396L435.745 337.091Z" fill="#2F2E41"/>
<path d="M446.229 485.419L442.521 517.042L447.039 590.83V700.788L418.427 699.253L412.404 584.806L395.839 532.101L383.792 592.336L376.263 705.276L346.898 702.922V591.939L346.145 511.019L356.686 479.396L446.229 485.419Z" fill="#2F2E41"/>
<path d="M384.545 306.974C384.545 306.974 395.086 291.915 414.662 302.456L423.698 314.503L452.309 335.585L446.286 406.361L453.815 495.207L346.898 493.701L364.969 404.855V309.985L384.545 306.974Z" fill="#2F2E41"/>
<path opacity="0.25" d="M442.521 360.58L451.155 463.818L440.262 407.867L442.521 360.58Z" fill="black"/>
<path d="M363.981 514.406C365.024 513.161 365.78 511.702 366.198 510.133C366.615 508.564 366.684 506.922 366.399 505.324C366.113 503.726 365.481 502.209 364.546 500.882C363.611 499.554 362.396 498.448 360.988 497.64L364.207 472.465L349.385 466.778L345.339 502.394C344.139 504.85 343.882 507.661 344.617 510.294C345.352 512.927 347.027 515.199 349.325 516.68C351.623 518.161 354.384 518.747 357.085 518.328C359.786 517.909 362.24 516.513 363.981 514.406V514.406Z" fill="#FFB8B8"/>
<path d="M345.392 489.184H369.486V478.643H345.392V489.184Z" fill="#E6E6E6"/>
<path d="M380.78 322.785L364.969 309.985C364.969 309.985 353.675 309.232 352.169 325.797C350.663 342.361 348.831 413.137 348.831 413.137L343.134 483.913L374.757 485.419L380.78 408.815V322.785Z" fill="#2F2E41"/>
<path d="M427.837 273.845C435.847 259.191 430.462 240.818 415.808 232.807C401.154 224.796 382.78 230.182 374.77 244.836C366.759 259.49 372.145 277.863 386.799 285.874C401.453 293.885 419.826 288.499 427.837 273.845Z" fill="#FFB8B8"/>
<path d="M399.045 286.015C406.443 287.791 414.237 286.754 420.913 283.106C427.59 279.458 432.673 273.458 435.174 266.273C437.675 259.087 437.416 251.229 434.448 244.223C431.48 237.217 426.014 231.565 419.113 228.363C413.797 225.991 407.985 224.948 402.176 225.324C393.133 225.8 384.343 229.142 375.29 228.896L373.978 231.005L369.033 229.806L367.973 233.732L366.671 233.687C364.337 238.023 368.091 244.231 373.015 244.178C374.964 244.157 376.808 243.345 378.714 242.937C380.62 242.528 382.865 242.63 384.179 244.07C385.887 245.941 385.144 248.86 384.788 251.369C384.431 253.877 385.321 257.256 387.853 257.337C389.147 257.379 390.377 256.452 391.648 256.696C393.128 256.98 393.877 258.767 393.661 260.259C393.294 261.723 392.696 263.119 391.889 264.394C388.219 271.721 391.318 281.689 398.497 285.642" fill="#2F2E41"/>
<path d="M590.447 735.268H209.447C209.182 735.268 208.928 735.162 208.74 734.975C208.553 734.787 208.447 734.533 208.447 734.268C208.447 734.002 208.553 733.748 208.74 733.56C208.928 733.373 209.182 733.268 209.447 733.268H590.447C590.713 733.268 590.967 733.373 591.155 733.56C591.342 733.748 591.447 734.002 591.447 734.268C591.447 734.533 591.342 734.787 591.155 734.975C590.967 735.162 590.713 735.268 590.447 735.268Z" fill="#CCCCCC"/>
</g>
<defs>
<clipPath id="clip0_63_3">
<rect width="805.947" height="735.268" fill="white"/>
</clipPath>
</defs>
</svg>
