<svg width="284" height="284" viewBox="0 0 284 284" fill="none" xmlns="http://www.w3.org/2000/svg">
<g clip-path="url(#clip0_29_4)">
<path d="M13.1112 53.7539L33.9415 29.2006L48.4537 41.5123L27.6234 66.0656L13.1112 53.7539Z" fill="#EAEEEF"/>
<path d="M65.939 98.5427L86.7693 73.9895L101.636 86.6022L80.806 111.155L65.939 98.5427Z" fill="#EAEEEF"/>
<path d="M181.968 196.976L202.801 172.454L217.277 184.737L196.476 209.288L181.968 196.976Z" fill="#EAEEEF"/>
<path d="M234.767 241.799L255.596 217.246L270.464 229.859L249.634 254.412L234.767 241.799Z" fill="#EAEEEF"/>
<path d="M45.8918 251.295C46.6362 250.451 47.9239 250.345 48.7651 251.06C49.6397 251.802 49.7454 253.089 49.0008 253.933C48.6466 254.384 48.152 254.606 47.6128 254.65C47.1035 254.692 46.5805 254.554 46.1265 254.169C45.2863 253.455 45.1807 252.167 45.8918 251.295Z" fill="#EAEEEF"/>
<path d="M91.8861 244.389L48.3517 207.455C53.2398 202.022 59.9297 198.7 67.2342 198.101C74.8376 197.478 82.2357 199.855 88.0333 204.773C88.0632 204.771 88.0632 204.771 88.0632 204.771C93.8642 209.72 97.4142 216.631 98.0379 224.234C98.6401 231.538 96.4536 238.679 91.8861 244.389Z" fill="#C5CBCF"/>
<path d="M76.0367 207.423C69.2087 207.983 62.9391 210.947 58.1541 215.767L91.887 244.387C96.4516 238.679 98.638 231.537 98.0388 224.233C97.6822 219.887 96.3423 215.783 94.1983 212.129C88.874 208.564 82.5369 206.889 76.0367 207.423Z" fill="#EAEEEF"/>
<path d="M222.784 231.631L208.465 219.455L229.296 194.933L243.612 207.079L222.784 231.631Z" fill="#505967"/>
<path d="M121.839 206.128L81.2174 171.638L87.1562 164.641L127.806 199.099L121.839 206.128Z" fill="#505967"/>
<path d="M160.167 78.5769L166.957 70.606L207.58 105.066L200.816 113.035L160.167 78.5769Z" fill="#505967"/>
<path d="M39.6067 76.232L60.437 51.6787L74.754 63.8248L53.9237 88.3781L39.6067 76.232Z" fill="#505967"/>
<path d="M97.3522 152.654L150.002 90.5621L190.624 125.051L137.969 187.114L97.3522 152.654Z" fill="#EAEEEF"/>
<path d="M-3.04971 60.6544C-6.35395 57.8512 -6.7616 52.8819 -3.95829 49.5786L27.0392 13.0409C28.4384 11.3589 30.3822 10.4459 32.3885 10.2813C34.3938 10.1168 36.4614 10.7007 38.116 12.1323L117.796 79.7029C119.384 81.0496 120.386 82.9861 120.556 85.0522C120.728 87.1481 120.052 89.1923 118.705 90.7797L108.593 102.699L114.682 107.866L160.054 54.4172C161.456 52.7651 163.4 51.8521 165.406 51.6876C167.412 51.523 169.479 52.107 171.131 53.5086L223.767 98.1636C227.072 100.967 227.479 105.936 224.676 109.239L179.304 162.688L185.782 168.184L195.894 156.264C197.296 154.612 199.237 153.669 201.244 153.504C203.25 153.34 205.319 153.954 206.971 155.355L286.623 222.958C289.957 225.759 290.365 230.728 287.532 234.034L256.535 270.572C253.732 273.876 248.763 274.284 245.459 271.48L165.779 203.91C162.472 201.077 162.067 196.137 164.868 192.804L175.614 180.168L169.138 174.702L128.741 222.287C125.937 225.592 120.968 225.999 117.665 223.196L113.259 219.459C113.445 220.618 113.628 221.749 113.726 222.946C114.691 234.711 110.992 246.196 103.352 255.2L98.7908 260.577C96.0973 263.752 90.8888 264.179 87.715 261.486L65.9459 242.99L63.7199 245.614C66.2944 251.641 65.5264 258.816 61.0197 264.128C54.6697 271.58 43.4434 272.501 35.9638 266.184C32.2365 262.994 30.1295 258.615 29.7587 254.096C29.3854 249.545 30.7483 244.853 33.9084 241.128C37.0684 237.403 41.4767 235.294 45.9966 234.923C47.9121 234.766 49.8307 235 51.7057 235.449L53.9316 232.825L32.1649 214.359C30.5775 213.012 29.5748 211.076 29.4054 209.01C29.2334 206.914 29.9071 204.84 31.2538 203.252L35.8179 197.905C43.4548 188.87 54.1559 183.381 65.9502 182.414C67.1173 182.318 68.2928 182.312 69.4672 182.306L65.0619 178.568C61.7253 175.738 61.3201 170.798 64.1508 167.463L104.519 119.88L98.4264 114.684L87.7118 127.346C86.3651 128.934 84.4261 129.906 82.3601 130.076C80.2641 130.248 78.2225 129.601 76.6051 128.257L-3.04971 60.6544ZM33.9434 29.1995L13.1131 53.7528L27.6243 66.0636L48.4545 41.5104L33.9434 29.1995ZM45.8918 251.295C45.1797 252.167 45.2853 253.455 46.1275 254.169C46.5815 254.554 47.1045 254.691 47.6138 254.65C48.153 254.605 48.6466 254.384 49.0018 253.933C49.7463 253.088 49.6406 251.8 48.7661 251.059C47.9219 250.345 46.6402 250.45 45.8918 251.295ZM48.3567 207.455L91.8911 244.388C96.4557 238.68 98.6421 231.538 98.0429 224.234C97.4191 216.63 93.8681 209.719 88.0681 204.77C88.0681 204.77 88.0681 204.77 88.0382 204.773C82.2396 199.853 74.8426 197.477 67.2391 198.101C59.9336 198.699 53.2408 202.021 48.3567 207.455ZM60.441 51.6784L39.6107 76.2317L53.9277 88.3778L74.758 63.8245L60.441 51.6784ZM86.7694 73.9905L65.9391 98.5438L80.8071 111.157L101.637 86.6041L86.7694 73.9905ZM81.2174 171.638L121.839 206.129L127.803 199.1L87.1532 164.642L81.2174 171.638ZM150.002 90.5621L97.3523 152.655L137.972 187.115L190.624 125.052L150.002 90.5621ZM166.957 70.6061L160.167 78.5769L200.816 113.035L207.577 105.066L166.957 70.6061ZM202.801 172.454L181.968 196.977L196.479 209.288L217.28 184.737L202.801 172.454ZM208.465 219.455L222.784 231.631L243.613 207.079L229.296 194.933L208.465 219.455ZM255.595 217.246L234.765 241.799L249.635 254.412L270.464 229.86L255.595 217.246Z" fill="#2D213F"/>
<path d="M110.136 184.124L87.1522 164.642L81.2164 171.638L106.914 193.457C107.797 190.689 108.864 187.567 110.136 184.124Z" fill="#454D5B"/>
<path d="M166.957 70.6061L160.167 78.5769L173.926 90.2381C176.548 87.934 179.277 85.6702 182.087 83.439L166.957 70.6061Z" fill="#454D5B"/>
<path d="M162.432 101.115L150.003 90.5621L97.3533 152.655L116.422 168.832C125.391 148.968 139.878 124.079 162.432 101.115Z" fill="#C5CBCF"/>
</g>
<defs>
<clipPath id="clip0_29_4">
<rect width="280.051" height="280.051" fill="white" transform="translate(280.028 283.596) rotate(-179.27)"/>
</clipPath>
</defs>
</svg>
