<svg width="1440" height="1024" viewBox="0 0 1440 1024" fill="none" xmlns="http://www.w3.org/2000/svg">
<g id="Desktop - 3" clip-path="url(#clip0_39_2)">
<rect width="1440" height="1024" fill="white"/>
<g id="Group 9">
<g id="Group">
<g id="Group_2">
<g id="XMLID_29_">
<g id="Group_3">
<path id="Vector" d="M1181.66 38.6162L1208.23 20.436L1218.98 36.1433L1192.4 54.3235L1181.66 38.6162Z" fill="#EAEEEF"/>
<path id="Vector_2" d="M1220.78 95.7666L1247.36 77.5864L1258.37 93.6777L1231.79 111.858L1220.78 95.7666Z" fill="#EAEEEF"/>
<path id="Vector_3" d="M1306.7 221.348L1333.26 203.199L1343.98 218.869L1317.44 237.055L1306.7 221.348Z" fill="#EAEEEF"/>
<path id="Vector_4" d="M1345.78 278.524L1372.36 260.344L1383.36 276.435L1356.79 294.615L1345.78 278.524Z" fill="#EAEEEF"/>
<path id="Vector_5" d="M1161.1 237.801C1162.05 237.183 1163.32 237.421 1163.94 238.333C1164.59 239.279 1164.35 240.549 1163.41 241.166C1162.95 241.508 1162.41 241.591 1161.88 241.491C1161.38 241.397 1160.91 241.126 1160.57 240.635C1159.95 239.724 1160.19 238.455 1161.1 237.801Z" fill="#EAEEEF"/>
<path id="Vector_6" d="M1207.29 243.287L1175.06 196.167C1181.2 192.217 1188.53 190.781 1195.74 192.132C1203.24 193.539 1209.74 197.785 1214.04 204.06C1214.07 204.066 1214.07 204.066 1214.07 204.066C1218.35 210.371 1219.95 217.974 1218.55 225.473C1217.2 232.677 1213.2 238.986 1207.29 243.287Z" fill="#C5CBCF"/>
<path id="Vector_7" d="M1201.77 203.448C1195.03 202.185 1188.2 203.388 1182.31 206.773L1207.29 243.286C1213.2 238.986 1217.2 232.675 1218.55 225.472C1219.35 221.186 1219.14 216.874 1218.04 212.783C1213.85 207.939 1208.18 204.65 1201.77 203.448Z" fill="#EAEEEF"/>
<path id="Vector_8" d="M1336.91 265.552L1326.31 250.027L1352.88 231.877L1363.48 247.373L1336.91 265.552Z" fill="#505967"/>
<path id="Vector_9" d="M1246.28 214.295L1216.21 170.302L1223.79 165.122L1253.89 209.092L1246.28 214.295Z" fill="#505967"/>
<path id="Vector_10" d="M1316.94 101.395L1325.59 95.5007L1355.67 139.466L1347.04 145.365L1316.94 101.395Z" fill="#505967"/>
<path id="Vector_11" d="M1201.28 67.2936L1227.85 49.1133L1238.45 64.6093L1211.88 82.7896L1201.28 67.2936Z" fill="#505967"/>
<path id="Vector_12" d="M1236.79 156.253L1303.97 110.27L1334.04 154.263L1266.86 200.216L1236.79 156.253Z" fill="#EAEEEF"/>
<path id="Vector_13" d="M1164.25 41.0035C1161.8 37.4272 1162.72 32.5266 1166.3 30.081L1205.84 3.02707C1207.64 1.77427 1209.75 1.4071 1211.73 1.77822C1213.71 2.14915 1215.55 3.25837 1216.77 5.07605L1275.77 91.2912C1276.95 93.0093 1277.4 95.1419 1277.02 97.1794C1276.63 99.2463 1275.44 101.039 1273.72 102.215L1260.82 111.041L1265.33 117.632L1323.21 78.0637C1325 76.8404 1327.11 76.4732 1329.09 76.8443C1331.07 77.2154 1332.91 78.3245 1334.13 80.1127L1373.11 137.083C1375.55 140.66 1374.63 145.56 1371.06 148.006L1313.18 187.574L1317.98 194.586L1330.88 185.76C1332.67 184.536 1334.79 184.14 1336.77 184.511C1338.75 184.882 1340.58 186.021 1341.8 187.809L1400.77 274.048C1403.25 277.63 1402.33 282.53 1398.72 284.97L1359.18 312.024C1355.6 314.471 1350.7 313.552 1348.26 309.975L1289.25 223.76C1286.81 220.154 1287.72 215.283 1291.3 212.808L1305.01 203.459L1300.2 196.477L1248.67 231.704C1245.1 234.15 1240.2 233.231 1237.75 229.655L1234.49 224.887C1234.36 226.054 1234.24 227.193 1234.02 228.374C1231.84 239.975 1225.24 250.076 1215.49 256.743L1209.67 260.724C1206.24 263.075 1201.1 262.112 1198.75 258.676L1182.64 235.087L1179.8 237.03C1180.69 243.523 1178.06 250.241 1172.31 254.174C1164.21 259.684 1153.14 257.608 1147.6 249.539C1144.84 245.478 1143.97 240.699 1144.8 236.241C1145.65 231.754 1148.2 227.588 1152.23 224.83C1156.26 222.072 1161.07 221.202 1165.53 222.038C1167.42 222.392 1169.21 223.124 1170.9 224.053L1173.74 222.11L1157.62 198.551C1156.44 196.833 1155.99 194.7 1156.37 192.663C1156.76 190.596 1157.96 188.773 1159.67 187.598L1165.49 183.646C1175.24 176.949 1187.01 174.481 1198.64 176.663C1199.79 176.879 1200.93 177.183 1202.06 177.487L1198.8 172.719C1196.33 169.108 1197.24 164.237 1200.86 161.767L1252.36 126.535L1247.85 119.914L1234.17 129.298C1232.46 130.473 1230.33 130.899 1228.29 130.517C1226.23 130.129 1224.43 128.967 1223.22 127.243L1164.25 41.0035ZM1208.24 20.4354L1181.66 38.6156L1192.41 54.3217L1218.98 36.1415L1208.24 20.4354ZM1161.1 237.801C1160.19 238.454 1159.95 239.724 1160.57 240.635C1160.91 241.126 1161.38 241.397 1161.88 241.491C1162.41 241.591 1162.95 241.508 1163.41 241.166C1164.35 240.548 1164.59 239.278 1163.94 238.333C1163.31 237.421 1162.05 237.184 1161.1 237.801ZM1175.06 196.168L1207.29 243.288C1213.2 238.988 1217.2 232.677 1218.55 225.474C1219.96 217.975 1218.36 210.371 1214.07 204.067C1214.07 204.067 1214.07 204.067 1214.04 204.061C1209.75 197.785 1203.24 193.54 1195.74 192.133C1188.54 190.781 1181.21 192.218 1175.06 196.168ZM1227.86 49.1141L1201.28 67.2944L1211.88 82.7904L1238.46 64.6101L1227.86 49.1141ZM1247.36 77.5874L1220.78 95.7676L1231.79 111.86L1258.37 93.6799L1247.36 77.5874ZM1216.21 170.302L1246.28 214.296L1253.89 209.091L1223.79 165.121L1216.21 170.302ZM1303.97 110.27L1236.79 156.254L1266.87 200.218L1334.04 154.264L1303.97 110.27ZM1325.59 95.5008L1316.94 101.395L1347.04 145.365L1355.67 139.465L1325.59 95.5008ZM1333.26 203.199L1306.7 221.349L1317.44 237.055L1343.99 218.87L1333.26 203.199ZM1326.31 250.027L1336.91 265.552L1363.48 247.373L1352.88 231.877L1326.31 250.027ZM1372.35 260.344L1345.78 278.524L1356.79 294.616L1383.36 276.436L1372.35 260.344Z" fill="#2D213F"/>
</g>
</g>
<path id="Vector_14" d="M1240.81 189.982L1223.79 165.121L1216.21 170.302L1235.24 198.132C1236.82 195.696 1238.67 192.967 1240.81 189.982Z" fill="#454D5B"/>
<path id="Vector_15" d="M1325.59 95.5008L1316.94 101.395L1327.13 116.276C1330.27 114.746 1333.5 113.284 1336.79 111.874L1325.59 95.5008Z" fill="#454D5B"/>
<path id="Vector_16" d="M1313.17 123.732L1303.97 110.271L1236.79 156.254L1250.91 176.892C1264.81 160.103 1285.35 139.924 1313.17 123.732Z" fill="#C5CBCF"/>
</g>
</g>
<path id="wifi-1" d="M1125.46 260.362C1127.73 264.907 1132.02 268.181 1137.63 269.642C1139.09 269.947 1140.87 269.19 1141.57 267.872C1142.28 266.554 1141.77 265.195 1140.36 264.867C1136 263.75 1132.62 261.179 1130.87 257.668C1129.12 254.156 1129.11 249.91 1130.84 245.759C1131.09 245.119 1131.08 244.541 1130.85 244.076C1130.57 243.508 1129.97 243.099 1129.17 242.98C1127.65 242.771 1126.02 243.712 1125.43 245.037C1123.26 250.37 1123.2 255.818 1125.46 260.362Z" fill="black" fill-opacity="0.44"/>
<path id="wif-2" d="M1080.26 287.904C1095.42 318.324 1124.18 340.237 1161.71 350.017C1171.46 352.062 1183.37 346.994 1188.08 338.172C1192.8 329.349 1189.41 320.253 1179.96 318.056C1150.79 310.581 1128.17 293.375 1116.46 269.869C1104.75 246.363 1104.64 217.941 1116.24 190.157C1117.9 185.876 1117.87 182.007 1116.32 178.896C1114.43 175.094 1110.41 172.352 1105.07 171.557C1094.89 170.161 1083.97 176.46 1080.04 185.325C1065.55 221.022 1065.11 257.485 1080.26 287.904Z" fill="black" fill-opacity="0.44"/>
<path id="wifi-3" d="M1010.38 327.322C1036.44 379.625 1085.9 417.303 1150.42 434.119C1167.19 437.635 1187.66 428.922 1195.77 413.752C1203.88 398.583 1198.05 382.942 1181.81 379.165C1131.66 366.313 1092.76 336.728 1072.63 296.312C1052.49 255.896 1052.3 207.027 1072.24 159.255C1075.11 151.894 1075.06 145.242 1072.39 139.893C1069.13 133.355 1062.22 128.642 1053.05 127.274C1035.53 124.874 1016.77 135.705 1010 150.947C985.082 212.325 984.326 275.019 1010.38 327.322Z" fill="black" fill-opacity="0.44"/>
<path id="wifi-4" d="M874.421 402.868C928.168 510.746 1030.18 588.46 1163.27 623.145C1197.85 630.397 1240.07 612.424 1256.8 581.136C1273.53 549.847 1261.5 517.588 1227.99 509.798C1124.56 483.289 1044.33 422.267 1002.8 338.907C961.272 255.546 960.88 154.749 1002.01 56.217C1007.92 41.035 1007.81 27.3144 1002.32 16.2814C995.598 2.79651 981.328 -6.9259 962.417 -9.7457C926.285 -14.6969 887.589 7.64203 873.627 39.0811C822.235 165.677 820.675 294.989 874.421 402.868Z" fill="black" fill-opacity="0.44"/>
<path id="wifi-5" d="M701.663 486.942C765.653 615.382 887.104 707.907 1045.56 749.203C1086.74 757.837 1137 736.439 1156.92 699.187C1176.84 661.936 1162.52 623.527 1122.62 614.253C999.479 582.692 903.961 510.039 854.514 410.79C805.067 311.541 804.6 191.534 853.574 74.2216C860.601 56.1459 860.479 39.8102 853.934 26.6743C845.936 10.6193 828.946 -0.956145 806.43 -4.31338C763.411 -10.2082 717.341 16.3884 700.717 53.8196C639.53 204.544 637.673 358.502 701.663 486.942Z" fill="black" fill-opacity="0.44"/>
<path id="wifi-7" d="M491.151 590.989C562.668 734.538 698.407 837.948 875.503 884.101C921.524 893.751 977.701 869.835 999.964 828.202C1022.23 786.568 1006.22 743.641 961.631 733.276C824 698.002 717.246 616.803 661.983 505.879C606.719 394.954 606.197 260.83 660.932 129.717C668.786 109.515 668.649 91.2577 661.335 76.5765C652.395 58.6329 633.407 45.6957 608.243 41.9436C560.163 35.3553 508.673 65.0806 490.094 106.915C421.709 275.37 419.633 447.44 491.151 590.989Z" fill="black" fill-opacity="0.44"/>
<path id="wifi-8" d="M247.926 710.353C334.778 884.683 499.622 1010.27 714.693 1066.32C770.582 1078.03 838.805 1048.99 865.841 998.43C892.878 947.869 873.434 895.738 819.289 883.15C652.147 840.313 522.502 741.702 455.388 606.993C388.275 472.284 387.64 309.399 454.112 150.173C463.65 125.639 463.484 103.467 454.602 85.6378C443.745 63.8466 420.685 48.1354 390.125 43.5787C331.736 35.5777 269.205 71.6769 246.642 122.482C163.594 327.058 161.073 536.023 247.926 710.353Z" fill="black" fill-opacity="0.44"/>
<path id="wifi-9" d="M-44.0743 814.353C42.7785 988.683 207.622 1114.27 422.693 1170.32C478.582 1182.03 546.805 1152.99 573.841 1102.43C600.878 1051.87 581.434 999.738 527.289 987.15C360.147 944.313 230.502 845.702 163.388 710.993C96.2749 576.284 95.6404 413.399 162.112 254.173C171.65 229.639 171.484 207.467 162.602 189.638C151.745 167.847 128.685 152.135 98.1251 147.579C39.736 139.578 -22.7951 175.677 -45.3582 226.482C-128.406 431.058 -130.927 640.023 -44.0743 814.353Z" fill="black" fill-opacity="0.44"/>
</g>
</g>
<defs>
<clipPath id="clip0_39_2">
<rect width="1440" height="1024" fill="white"/>
</clipPath>
</defs>
</svg>
