<svg width="344" height="344" viewBox="0 0 344 344" fill="none" xmlns="http://www.w3.org/2000/svg">
<g id="Group-sat">
<g id="XMLID_29_">
<g id="Group">
<path id="Vector" d="M108.619 314.627L80.7443 298.51L90.2705 282.035L118.145 298.152L108.619 314.627Z" fill="#EAEEEF"/>
<path id="Vector_2" d="M143.268 254.659L115.394 238.541L125.153 221.663L153.027 237.781L143.268 254.659Z" fill="#EAEEEF"/>
<path id="Vector_3" d="M219.43 122.934L191.586 106.809L201.091 90.3747L228.957 106.463L219.43 122.934Z" fill="#EAEEEF"/>
<path id="Vector_4" d="M254.119 62.9888L226.244 46.8723L236.003 29.9933L263.878 46.1108L254.119 62.9888Z" fill="#EAEEEF"/>
<path id="Vector_5" d="M297.147 247.142C296.183 246.56 295.85 245.312 296.403 244.357C296.977 243.364 298.225 243.03 299.188 243.612C299.695 243.881 300.001 244.328 300.141 244.85C300.273 245.344 300.231 245.883 299.933 246.399C299.38 247.353 298.132 247.686 297.147 247.142Z" fill="#EAEEEF"/>
<path id="Vector_6" d="M282.148 203.117L253.571 252.54C247.353 248.699 242.892 242.709 241 235.629C239.03 228.258 240.049 220.555 243.855 213.973C243.847 213.944 243.847 213.944 243.847 213.944C247.683 207.353 253.85 202.628 261.22 200.658C268.3 198.763 275.716 199.641 282.148 203.117Z" fill="#C5CBCF"/>
<path id="Vector_7" d="M248.602 225.305C250.371 231.924 254.406 237.564 260.001 241.413L282.147 203.116C275.716 199.643 268.299 198.765 261.219 200.658C257.006 201.784 253.207 203.834 249.993 206.595C247.435 212.47 246.918 219.004 248.602 225.305Z" fill="#EAEEEF"/>
<path id="Vector_8" d="M246.25 76.5927L236.823 92.8541L208.979 76.7306L218.377 60.4779L246.25 76.5927Z" fill="#505967"/>
<path id="Vector_9" d="M239.159 180.467L212.467 226.589L204.523 221.993L231.179 175.85L239.159 180.467Z" fill="#505967"/>
<path id="Vector_10" d="M106.817 165.502L97.7634 160.242L124.426 114.126L133.473 119.359L106.817 165.502Z" fill="#505967"/>
<path id="Vector_11" d="M126.011 284.548L98.1367 268.43L107.535 252.176L135.409 268.294L126.011 284.548Z" fill="#505967"/>
<path id="Vector_12" d="M190.909 214.099L120.423 173.367L147.115 127.245L217.574 167.988L190.909 214.099Z" fill="#EAEEEF"/>
<path id="Vector_13" d="M118.291 329.298C116.122 333.05 111.305 334.337 107.555 332.168L66.0746 308.183C64.17 307.107 62.9249 305.357 62.4052 303.412C61.8857 301.468 62.0915 299.33 63.205 297.446L115.482 206.993C116.524 205.191 118.251 203.859 120.253 203.323C122.285 202.78 124.417 203.081 126.219 204.123L139.751 211.948L143.749 205.034L83.0652 169.922C81.1896 168.837 79.9445 167.087 79.4248 165.142C78.9051 163.198 79.1111 161.06 80.1956 159.184L114.747 99.4281C116.916 95.6769 121.733 94.3895 125.484 96.5588L186.167 131.671L190.419 124.317L176.887 116.493C175.012 115.408 173.738 113.666 173.218 111.721C172.698 109.776 172.933 107.631 174.018 105.755L226.332 15.3239C228.493 11.5437 233.31 10.2564 237.068 12.4546L278.548 36.438C282.299 38.607 283.586 43.4239 281.417 47.1742L229.14 137.628C226.942 141.387 222.154 142.666 218.375 140.505L204.025 132.185L199.802 139.531L253.829 170.795C257.58 172.964 258.867 177.781 256.698 181.531L253.806 186.532C254.914 186.143 255.994 185.761 257.155 185.451C268.558 182.403 280.519 183.995 290.742 189.906L296.846 193.436C300.45 195.52 301.8 200.569 299.715 204.172L285.398 228.891L288.377 230.613C293.849 227.005 301.046 226.481 307.076 229.968C315.542 234.887 318.45 245.769 313.567 254.256C311.093 258.492 307.161 261.346 302.78 262.517C298.369 263.696 293.509 263.192 289.28 260.747C285.051 258.302 282.189 254.34 281.018 249.959C280.522 248.102 280.41 246.173 280.518 244.248L277.539 242.525L263.251 267.236C262.209 269.038 260.482 270.37 258.48 270.906C256.448 271.449 254.287 271.156 252.485 270.114L246.409 266.576C236.158 260.673 228.848 251.123 225.792 239.69C225.49 238.558 225.274 237.403 225.059 236.248L222.167 241.25C219.977 245.038 215.189 246.317 211.402 244.127L157.383 212.892L153.356 219.813L167.727 228.098C169.529 229.14 170.832 230.874 171.367 232.877C171.91 234.909 171.638 237.033 170.604 238.864L118.291 329.298ZM80.7428 298.508L108.617 314.626L118.143 298.152L90.2683 282.034L80.7428 298.508ZM297.147 247.142C298.132 247.687 299.38 247.354 299.932 246.398C300.23 245.882 300.273 245.343 300.141 244.849C300.001 244.327 299.695 243.881 299.188 243.612C298.224 243.03 296.976 243.363 296.402 244.356C295.85 245.314 296.182 246.556 297.147 247.142ZM253.57 252.535L282.147 203.112C275.716 199.639 268.299 198.761 261.219 200.653C253.848 202.623 247.681 207.35 243.846 213.939C243.846 213.939 243.846 213.939 243.854 213.968C240.047 220.551 239.028 228.254 240.998 235.624C242.89 242.706 247.352 248.699 253.57 252.535ZM98.1356 268.426L126.01 284.544L135.408 268.29L107.534 252.173L98.1356 268.426ZM115.395 238.541L143.269 254.658L153.029 237.779L125.154 221.662L115.395 238.541ZM212.467 226.589L239.16 180.467L231.18 175.853L204.524 221.996L212.467 226.589ZM120.423 173.367L190.91 214.098L217.574 167.984L147.116 127.245L120.423 173.367ZM97.7634 160.242L106.817 165.502L133.473 119.359L124.427 114.128L97.7634 160.242ZM191.586 106.809L219.431 122.934L228.957 106.46L201.09 90.3719L191.586 106.809ZM236.823 92.8539L246.25 76.5925L218.377 60.4768L208.979 76.7304L236.823 92.8539ZM226.245 46.8732L254.119 62.9906L263.877 46.1097L236.004 29.993L226.245 46.8732Z" fill="#2D213F"/>
</g>
</g>
<path id="Vector_14" d="M219.595 195.907L204.524 221.997L212.467 226.59L229.353 197.413C226.472 197.038 223.21 196.545 219.595 195.907Z" fill="#454D5B"/>
<path id="Vector_15" d="M97.7635 160.243L106.817 165.502L115.838 149.885C113.103 147.715 110.389 145.434 107.692 143.067L97.7635 160.243Z" fill="#454D5B"/>
<path id="Vector_16" d="M128.59 159.254L120.423 173.366L190.91 214.098L203.427 192.45C182.282 187.167 155.209 177.351 128.59 159.254Z" fill="#C5CBCF"/>
</g>
</svg>
