<svg width="352" height="669" viewBox="0 0 352 669" fill="none" xmlns="http://www.w3.org/2000/svg">
<g id="the phone ">
<path id="cadre-phone" d="M334 158.921H330.326V58.26C330.326 42.8085 324.188 27.9898 313.262 17.064C302.336 6.13809 287.518 0 272.066 0H58.802C43.3505 0 28.5318 6.13809 17.606 17.064C6.68009 27.9898 0.541992 42.8085 0.541992 58.26V610.494C0.541992 625.946 6.68009 640.764 17.606 651.69C28.5318 662.616 43.3505 668.754 58.802 668.754H272.066C287.518 668.754 302.336 662.616 313.262 651.69C324.188 640.764 330.326 625.946 330.326 610.494V230.573H334V158.921Z" fill="#040D21"/>
<g id="screen-one">
<path id="Path 664" d="M274.797 15H246.958C248.238 18.1386 248.727 21.5439 248.381 24.9158C248.035 28.2877 246.865 31.5228 244.974 34.3361C243.083 37.1494 240.53 39.4546 237.538 41.0486C234.547 42.6426 231.21 43.4766 227.82 43.477H105.644C102.254 43.4765 98.9171 42.6425 95.9258 41.0484C92.9345 39.4543 90.3812 37.149 88.4907 34.3357C86.6002 31.5224 85.4305 28.2873 85.0847 24.9154C84.739 21.5436 85.2278 18.1385 86.508 15H60.508C48.969 15 37.9025 19.5839 29.7432 27.7432C21.5839 35.9025 17 46.969 17 58.508V609.934C17.0005 621.473 21.5846 632.539 29.7439 640.698C37.9032 648.856 48.9693 653.44 60.508 653.44H274.797C280.511 653.44 286.168 652.315 291.447 650.129C296.726 647.943 301.522 644.739 305.563 640.699C309.603 636.659 312.808 631.863 314.995 626.585C317.182 621.306 318.308 615.649 318.308 609.935V609.934V58.508C318.308 46.969 313.724 35.9025 305.565 27.7432C297.405 19.5839 286.339 15 274.8 15H274.797Z" fill="black"/>
<path id="Path 667" d="M297.565 422.663H37.632C36.3556 422.662 35.1319 422.154 34.2294 421.252C33.3269 420.349 32.8193 419.125 32.818 417.849V298.497C32.8193 297.221 33.3269 295.997 34.2294 295.095C35.1319 294.192 36.3556 293.684 37.632 293.683H297.565C298.841 293.684 300.065 294.192 300.968 295.095C301.87 295.997 302.378 297.221 302.379 298.497V417.85C302.377 419.126 301.87 420.35 300.967 421.252C300.065 422.154 298.841 422.662 297.565 422.663ZM37.632 295.609C36.8663 295.61 36.1322 295.914 35.5907 296.456C35.0493 296.997 34.7448 297.731 34.744 298.497V417.85C34.7448 418.616 35.0493 419.35 35.5907 419.891C36.1322 420.433 36.8663 420.737 37.632 420.738H297.565C298.331 420.737 299.065 420.433 299.606 419.891C300.148 419.35 300.452 418.616 300.453 417.85V298.497C300.452 297.731 300.148 296.997 299.606 296.456C299.065 295.914 298.331 295.61 297.565 295.609H37.632Z" fill="black"/>
<path id="Path 668" d="M295.636 267.667H180.114C178.838 267.666 177.614 267.158 176.711 266.256C175.809 265.353 175.301 264.129 175.3 262.853V198.374C175.301 197.098 175.809 195.874 176.711 194.972C177.614 194.069 178.838 193.561 180.114 193.56H295.636C296.912 193.561 298.136 194.069 299.039 194.972C299.941 195.874 300.449 197.098 300.45 198.374V262.852C300.449 264.129 299.941 265.353 299.039 266.255C298.136 267.158 296.913 267.666 295.636 267.667V267.667ZM180.11 195.487C179.344 195.488 178.61 195.792 178.069 196.334C177.527 196.875 177.223 197.609 177.222 198.375V262.853C177.223 263.619 177.527 264.353 178.069 264.894C178.61 265.436 179.344 265.74 180.11 265.741H295.636C296.402 265.74 297.136 265.436 297.677 264.894C298.219 264.353 298.523 263.619 298.524 262.853V198.374C298.523 197.608 298.219 196.874 297.677 196.333C297.136 195.791 296.402 195.487 295.636 195.486L180.11 195.487Z" fill="black"/>
<path id="Path 669" d="M153.158 578.622H37.632C36.3556 578.621 35.1319 578.113 34.2294 577.21C33.3269 576.308 32.8193 575.084 32.818 573.808V453.493C32.8196 452.217 33.3273 450.993 34.2298 450.091C35.1323 449.189 36.3558 448.681 37.632 448.68H153.158C154.434 448.681 155.658 449.189 156.56 450.091C157.463 450.993 157.97 452.217 157.972 453.493V573.809C157.971 575.085 157.463 576.309 156.561 577.211C155.658 578.114 154.434 578.622 153.158 578.623V578.622ZM37.632 450.605C36.8663 450.606 36.1322 450.91 35.5907 451.452C35.0493 451.993 34.7448 452.727 34.744 453.493V573.809C34.7448 574.575 35.0493 575.309 35.5907 575.85C36.1322 576.392 36.8663 576.696 37.632 576.697H153.158C153.924 576.696 154.658 576.392 155.199 575.85C155.741 575.309 156.045 574.575 156.046 573.809V453.493C156.045 452.727 155.741 451.993 155.199 451.452C154.658 450.91 153.924 450.606 153.158 450.605H37.632Z" fill="black"/>
<path id="Path 670" d="M295.636 578.622H180.114C178.838 578.621 177.614 578.113 176.711 577.21C175.809 576.308 175.301 575.084 175.3 573.808V453.493C175.302 452.217 175.809 450.993 176.712 450.091C177.614 449.189 178.838 448.681 180.114 448.68H295.636C296.912 448.681 298.136 449.189 299.039 450.091C299.941 450.994 300.449 452.218 300.45 453.494V573.809C300.449 575.085 299.941 576.309 299.039 577.211C298.136 578.114 296.912 578.622 295.636 578.623V578.622ZM180.114 450.605C179.348 450.606 178.614 450.91 178.073 451.452C177.531 451.993 177.227 452.727 177.226 453.493V573.809C177.227 574.575 177.531 575.309 178.073 575.85C178.614 576.392 179.348 576.696 180.114 576.697H295.636C296.402 576.696 297.136 576.392 297.677 575.85C298.219 575.309 298.523 574.575 298.524 573.809V453.493C298.523 452.727 298.219 451.993 297.677 451.452C297.136 450.91 296.402 450.606 295.636 450.605H180.114Z" fill="black"/>
<path id="Path 677" d="M153.056 267.679H44.683L70.183 223.504C70.64 222.712 71.2975 222.055 72.0893 221.597C72.8811 221.14 73.7792 220.9 74.6935 220.9C75.6078 220.9 76.5059 221.14 77.2977 221.597C78.0895 222.055 78.7469 222.712 79.204 223.504L90.099 242.375L108.627 210.286C109.199 209.295 110.022 208.471 111.014 207.899C112.005 207.327 113.129 207.025 114.274 207.025C115.419 207.025 116.543 207.327 117.534 207.899C118.526 208.471 119.349 209.295 119.921 210.286L153.056 267.679ZM48.017 265.754H149.717L118.249 211.254C117.846 210.555 117.266 209.975 116.567 209.572C115.869 209.169 115.077 208.956 114.27 208.956C113.463 208.956 112.671 209.169 111.973 209.572C111.274 209.975 110.694 210.555 110.291 211.254L90.102 246.226L77.539 224.467C77.251 223.968 76.8366 223.554 76.3377 223.266C75.8387 222.977 75.2727 222.826 74.6965 222.826C74.1203 222.826 73.5543 222.977 73.0553 223.266C72.5563 223.554 72.142 223.968 71.854 224.467L48.017 265.754Z" fill="black"/>
<path id="Path 678" d="M291.687 267.679H183.314L208.814 223.504C209.271 222.712 209.929 222.055 210.72 221.597C211.512 221.14 212.41 220.9 213.324 220.9C214.239 220.9 215.137 221.14 215.929 221.597C216.72 222.055 217.378 222.712 217.835 223.504L228.729 242.375L247.258 210.286C247.83 209.295 248.653 208.471 249.645 207.899C250.636 207.327 251.76 207.025 252.905 207.025C254.05 207.025 255.174 207.327 256.165 207.899C257.157 208.471 257.98 209.295 258.552 210.286L291.687 267.679ZM186.648 265.754H288.348L256.88 211.254C256.477 210.555 255.897 209.975 255.198 209.572C254.5 209.169 253.708 208.956 252.901 208.956C252.094 208.956 251.302 209.169 250.604 209.572C249.905 209.975 249.325 210.555 248.922 211.254L228.729 246.226L216.166 224.467C215.878 223.968 215.464 223.554 214.965 223.266C214.466 222.977 213.9 222.826 213.323 222.826C212.747 222.826 212.181 222.977 211.682 223.266C211.183 223.554 210.769 223.968 210.481 224.467L186.648 265.754Z" fill="black"/>
<path id="Path 679" d="M153.158 267.667H37.632C36.3556 267.666 35.1319 267.158 34.2294 266.256C33.3269 265.353 32.8193 264.129 32.818 262.853V198.374C32.8193 197.098 33.3269 195.874 34.2294 194.972C35.1319 194.069 36.3556 193.561 37.632 193.56H153.158C154.434 193.561 155.658 194.069 156.561 194.972C157.463 195.874 157.971 197.098 157.972 198.374V262.852C157.971 264.128 157.463 265.352 156.561 266.255C155.658 267.157 154.434 267.665 153.158 267.666V267.667ZM37.632 195.487C36.8663 195.488 36.1322 195.792 35.5907 196.334C35.0493 196.875 34.7448 197.609 34.744 198.375V262.853C34.7448 263.619 35.0493 264.353 35.5907 264.894C36.1322 265.436 36.8663 265.74 37.632 265.741H153.158C153.924 265.74 154.658 265.436 155.199 264.894C155.741 264.353 156.045 263.619 156.046 262.853V198.374C156.045 197.608 155.741 196.874 155.199 196.333C154.658 195.791 153.924 195.487 153.158 195.486L37.632 195.487Z" fill="black"/>
<path id="Path 680" d="M62.249 473.492C61.3823 473.492 60.551 473.836 59.9382 474.449C59.3253 475.062 58.981 475.893 58.981 476.76C58.981 477.627 59.3253 478.458 59.9382 479.071C60.551 479.684 61.3823 480.028 62.249 480.028H128.542C129.409 480.028 130.24 479.684 130.853 479.071C131.466 478.458 131.81 477.627 131.81 476.76C131.81 475.893 131.466 475.062 130.853 474.449C130.24 473.836 129.409 473.492 128.542 473.492H62.249Z" fill="black"/>
<path id="Path 681" d="M62.249 492.746C61.3823 492.746 60.551 493.09 59.9382 493.703C59.3253 494.316 58.981 495.147 58.981 496.014C58.981 496.881 59.3253 497.712 59.9382 498.325C60.551 498.938 61.3823 499.282 62.249 499.282H128.542C129.409 499.282 130.24 498.938 130.853 498.325C131.466 497.712 131.81 496.881 131.81 496.014C131.81 495.147 131.466 494.316 130.853 493.703C130.24 493.09 129.409 492.746 128.542 492.746H62.249Z" fill="black"/>
<path id="Path 682" d="M95.396 553.81C91.3277 553.81 87.3507 552.604 83.968 550.344C80.5853 548.083 77.9488 544.871 76.3919 541.112C74.835 537.354 74.4276 533.218 75.2212 529.228C76.0148 525.237 77.9738 521.572 80.8505 518.695C83.7271 515.819 87.3922 513.859 91.3824 513.066C95.3725 512.272 99.5084 512.679 103.267 514.236C107.026 515.792 110.238 518.429 112.499 521.811C114.759 525.194 115.966 529.171 115.966 533.239V533.239C115.96 538.693 113.791 543.921 109.935 547.778C106.078 551.634 100.85 553.804 95.396 553.81V553.81ZM95.396 514.594C91.7084 514.594 88.1036 515.688 85.0374 517.736C81.9712 519.785 79.5815 522.697 78.1703 526.104C76.7591 529.511 76.3898 533.26 77.1093 536.877C77.8287 540.493 79.6044 543.816 82.212 546.423C84.8195 549.031 88.1418 550.806 91.7586 551.526C95.3753 552.245 99.1242 551.876 102.531 550.465C105.938 549.054 108.85 546.664 110.899 543.598C112.947 540.532 114.041 536.927 114.041 533.239C114.035 528.296 112.068 523.558 108.573 520.063C105.078 516.568 100.339 514.602 95.396 514.596V514.594Z" fill="black"/>
<path id="Path 683" d="M271.027 553.812C271.456 553.812 271.881 553.728 272.278 553.563C272.674 553.399 273.034 553.158 273.338 552.855C273.641 552.551 273.882 552.191 274.046 551.795C274.21 551.398 274.295 550.973 274.295 550.544C274.295 550.115 274.21 549.69 274.046 549.294C273.882 548.897 273.641 548.537 273.338 548.233C273.034 547.93 272.674 547.689 272.278 547.525C271.881 547.361 271.456 547.276 271.027 547.276H204.727C203.86 547.276 203.029 547.62 202.416 548.233C201.803 548.846 201.459 549.677 201.459 550.544C201.459 551.411 201.803 552.242 202.416 552.855C203.029 553.468 203.86 553.812 204.727 553.812H271.027Z" fill="black"/>
<path id="Path 684" d="M271.027 534.556C271.456 534.556 271.881 534.471 272.278 534.307C272.674 534.143 273.034 533.902 273.338 533.599C273.641 533.295 273.882 532.935 274.046 532.539C274.21 532.142 274.295 531.717 274.295 531.288C274.295 530.859 274.21 530.434 274.046 530.037C273.882 529.641 273.641 529.281 273.338 528.977C273.034 528.674 272.674 528.433 272.278 528.269C271.881 528.105 271.456 528.02 271.027 528.02H204.727C203.86 528.02 203.029 528.364 202.416 528.977C201.803 529.59 201.459 530.421 201.459 531.288C201.459 532.155 201.803 532.986 202.416 533.599C203.029 534.212 203.86 534.556 204.727 534.556H271.027Z" fill="black"/>
<path id="Path 685" d="M237.877 473.492C241.945 473.492 245.922 474.698 249.305 476.959C252.688 479.219 255.324 482.431 256.881 486.19C258.438 489.949 258.845 494.085 258.052 498.075C257.258 502.065 255.299 505.73 252.422 508.607C249.545 511.484 245.88 513.443 241.89 514.237C237.9 515.03 233.764 514.623 230.005 513.066C226.247 511.509 223.034 508.873 220.774 505.49C218.513 502.107 217.307 498.13 217.307 494.062V494.062C217.313 488.608 219.483 483.38 223.339 479.524C227.195 475.667 232.423 473.498 237.877 473.492V473.492ZM237.877 512.707C241.564 512.706 245.169 511.612 248.235 509.563C251.301 507.514 253.69 504.602 255.101 501.195C256.511 497.788 256.88 494.039 256.16 490.423C255.441 486.806 253.665 483.484 251.057 480.877C248.449 478.27 245.127 476.494 241.51 475.775C237.894 475.056 234.145 475.425 230.738 476.836C227.331 478.248 224.42 480.638 222.371 483.704C220.322 486.77 219.229 490.374 219.229 494.062V494.062C219.235 499.005 221.201 503.744 224.696 507.24C228.192 510.735 232.931 512.701 237.874 512.707H237.877Z" fill="black"/>
<path id="Path 734" d="M297.565 167.545H37.632C34.975 167.545 32.822 166.306 32.818 164.779V96.205C32.818 94.678 34.974 93.441 37.632 93.439H297.565C300.222 93.439 302.375 94.678 302.379 96.205V164.78C302.376 166.306 300.222 167.543 297.565 167.545ZM37.632 94.545C36.038 94.545 34.746 95.288 34.744 96.204V164.779C34.744 165.695 36.038 166.437 37.632 166.438H297.565C299.159 166.438 300.451 165.695 300.453 164.779V96.205C300.453 95.289 299.159 94.547 297.565 94.546L37.632 94.545Z" fill="black"/>
</g>
<g id="animate-me">
<path id="Animate me" d="M49.248 268.546L38.1865 299H33.6655L46.4023 265.586H49.3169L49.248 268.546ZM58.5195 299L47.4351 268.546L47.3662 265.586H50.2808L63.0635 299H58.5195ZM57.9458 286.63V290.256H39.1733V286.63H57.9458ZM71.1416 279.47V299H66.896V274.169H70.9121L71.1416 279.47ZM70.1318 285.644L68.3647 285.575C68.38 283.876 68.6325 282.308 69.1221 280.87C69.6117 279.417 70.3001 278.154 71.1875 277.083C72.0749 276.013 73.1305 275.186 74.3545 274.605C75.5938 274.008 76.9631 273.71 78.4624 273.71C79.6864 273.71 80.7879 273.878 81.7671 274.215C82.7463 274.536 83.5801 275.056 84.2686 275.775C84.9723 276.494 85.5078 277.428 85.875 278.575C86.2422 279.707 86.4258 281.092 86.4258 282.729V299H82.1572V282.683C82.1572 281.383 81.966 280.342 81.5835 279.562C81.201 278.766 80.6426 278.193 79.9082 277.841C79.1738 277.474 78.2712 277.29 77.2002 277.29C76.1445 277.29 75.1807 277.512 74.3086 277.956C73.4518 278.399 72.7098 279.011 72.0825 279.792C71.4705 280.572 70.9886 281.467 70.6367 282.477C70.3001 283.471 70.1318 284.527 70.1318 285.644ZM97.4873 274.169V299H93.2188V274.169H97.4873ZM92.8975 267.583C92.8975 266.894 93.104 266.313 93.5171 265.838C93.9455 265.364 94.5728 265.127 95.3989 265.127C96.2098 265.127 96.8294 265.364 97.2578 265.838C97.7015 266.313 97.9233 266.894 97.9233 267.583C97.9233 268.24 97.7015 268.806 97.2578 269.281C96.8294 269.74 96.2098 269.969 95.3989 269.969C94.5728 269.969 93.9455 269.74 93.5171 269.281C93.104 268.806 92.8975 268.24 92.8975 267.583ZM108.526 279.103V299H104.257V274.169H108.296L108.526 279.103ZM107.654 285.644L105.68 285.575C105.695 283.876 105.917 282.308 106.346 280.87C106.774 279.417 107.409 278.154 108.25 277.083C109.092 276.013 110.14 275.186 111.395 274.605C112.649 274.008 114.103 273.71 115.755 273.71C116.918 273.71 117.989 273.878 118.968 274.215C119.947 274.536 120.796 275.049 121.515 275.752C122.234 276.456 122.793 277.359 123.19 278.46C123.588 279.562 123.787 280.893 123.787 282.454V299H119.542V282.66C119.542 281.36 119.32 280.319 118.876 279.539C118.448 278.759 117.836 278.193 117.04 277.841C116.244 277.474 115.311 277.29 114.24 277.29C112.986 277.29 111.938 277.512 111.096 277.956C110.255 278.399 109.582 279.011 109.077 279.792C108.572 280.572 108.205 281.467 107.975 282.477C107.761 283.471 107.654 284.527 107.654 285.644ZM123.741 283.303L120.896 284.175C120.911 282.813 121.133 281.505 121.561 280.25C122.005 278.996 122.64 277.879 123.466 276.9C124.307 275.921 125.34 275.148 126.564 274.582C127.788 274.001 129.188 273.71 130.764 273.71C132.095 273.71 133.273 273.886 134.298 274.238C135.338 274.59 136.21 275.133 136.914 275.867C137.633 276.586 138.176 277.512 138.543 278.644C138.911 279.776 139.094 281.123 139.094 282.683V299H134.826V282.637C134.826 281.245 134.604 280.166 134.16 279.401C133.732 278.621 133.12 278.078 132.324 277.772C131.544 277.451 130.611 277.29 129.524 277.29C128.591 277.29 127.765 277.451 127.046 277.772C126.327 278.093 125.722 278.537 125.233 279.103C124.743 279.654 124.368 280.289 124.108 281.008C123.864 281.727 123.741 282.492 123.741 283.303ZM160.162 294.754V281.972C160.162 280.993 159.963 280.143 159.565 279.424C159.182 278.69 158.601 278.124 157.821 277.726C157.041 277.328 156.077 277.129 154.929 277.129C153.858 277.129 152.917 277.313 152.106 277.68C151.311 278.047 150.684 278.529 150.225 279.126C149.781 279.723 149.559 280.365 149.559 281.054H145.313C145.313 280.166 145.543 279.287 146.002 278.415C146.461 277.542 147.119 276.755 147.976 276.051C148.848 275.332 149.888 274.766 151.097 274.353C152.321 273.924 153.682 273.71 155.182 273.71C156.987 273.71 158.578 274.016 159.955 274.628C161.347 275.24 162.434 276.166 163.214 277.405C164.009 278.629 164.407 280.166 164.407 282.018V293.584C164.407 294.41 164.476 295.29 164.614 296.223C164.767 297.156 164.989 297.96 165.279 298.633V299H160.85C160.636 298.51 160.468 297.86 160.345 297.049C160.223 296.223 160.162 295.458 160.162 294.754ZM160.896 283.945L160.942 286.929H156.65C155.442 286.929 154.363 287.028 153.415 287.227C152.466 287.411 151.67 287.694 151.028 288.076C150.385 288.459 149.896 288.941 149.559 289.522C149.222 290.088 149.054 290.754 149.054 291.519C149.054 292.299 149.23 293.01 149.582 293.653C149.934 294.295 150.462 294.808 151.166 295.19C151.885 295.558 152.764 295.741 153.805 295.741C155.105 295.741 156.253 295.466 157.247 294.915C158.242 294.364 159.029 293.691 159.611 292.896C160.208 292.1 160.529 291.327 160.575 290.578L162.388 292.62C162.281 293.263 161.99 293.974 161.516 294.754C161.041 295.535 160.406 296.284 159.611 297.003C158.831 297.707 157.897 298.296 156.811 298.771C155.74 299.229 154.531 299.459 153.185 299.459C151.502 299.459 150.026 299.13 148.756 298.472C147.501 297.814 146.522 296.935 145.818 295.833C145.13 294.716 144.786 293.469 144.786 292.092C144.786 290.761 145.046 289.591 145.566 288.581C146.086 287.556 146.836 286.707 147.815 286.034C148.794 285.345 149.972 284.825 151.349 284.473C152.726 284.121 154.264 283.945 155.962 283.945H160.896ZM181.481 274.169V277.428H168.056V274.169H181.481ZM172.6 268.133H176.846V292.85C176.846 293.691 176.976 294.326 177.236 294.754C177.496 295.183 177.833 295.466 178.246 295.604C178.659 295.741 179.102 295.81 179.577 295.81C179.929 295.81 180.296 295.779 180.678 295.718C181.076 295.642 181.374 295.581 181.573 295.535L181.596 299C181.26 299.107 180.816 299.207 180.265 299.298C179.73 299.405 179.079 299.459 178.314 299.459C177.274 299.459 176.318 299.252 175.446 298.839C174.574 298.426 173.878 297.738 173.357 296.774C172.853 295.795 172.6 294.479 172.6 292.827V268.133ZM196.766 299.459C195.037 299.459 193.469 299.168 192.061 298.587C190.669 297.99 189.468 297.156 188.458 296.085C187.464 295.014 186.699 293.745 186.163 292.276C185.628 290.807 185.36 289.201 185.36 287.457V286.493C185.36 284.473 185.658 282.675 186.255 281.1C186.852 279.508 187.662 278.162 188.688 277.061C189.713 275.959 190.875 275.125 192.176 274.559C193.476 273.993 194.823 273.71 196.215 273.71C197.99 273.71 199.52 274.016 200.805 274.628C202.105 275.24 203.168 276.097 203.995 277.198C204.821 278.285 205.433 279.57 205.831 281.054C206.228 282.522 206.427 284.129 206.427 285.873V287.778H187.884V284.312H202.182V283.991C202.12 282.89 201.891 281.819 201.493 280.778C201.111 279.738 200.499 278.881 199.657 278.208C198.816 277.535 197.668 277.198 196.215 277.198C195.251 277.198 194.364 277.405 193.553 277.818C192.742 278.216 192.046 278.812 191.464 279.608C190.883 280.403 190.432 281.375 190.11 282.522C189.789 283.67 189.628 284.993 189.628 286.493V287.457C189.628 288.635 189.789 289.744 190.11 290.784C190.447 291.809 190.929 292.712 191.556 293.492C192.199 294.272 192.971 294.884 193.874 295.328C194.792 295.772 195.832 295.994 196.995 295.994C198.494 295.994 199.764 295.688 200.805 295.076C201.845 294.464 202.755 293.645 203.536 292.62L206.106 294.663C205.57 295.473 204.89 296.246 204.063 296.98C203.237 297.715 202.22 298.312 201.011 298.771C199.818 299.229 198.403 299.459 196.766 299.459ZM227.265 279.103V299H222.997V274.169H227.036L227.265 279.103ZM226.393 285.644L224.419 285.575C224.435 283.876 224.657 282.308 225.085 280.87C225.513 279.417 226.148 278.154 226.99 277.083C227.831 276.013 228.879 275.186 230.134 274.605C231.388 274.008 232.842 273.71 234.494 273.71C235.657 273.71 236.728 273.878 237.707 274.215C238.686 274.536 239.535 275.049 240.254 275.752C240.973 276.456 241.532 277.359 241.93 278.46C242.327 279.562 242.526 280.893 242.526 282.454V299H238.281V282.66C238.281 281.36 238.059 280.319 237.615 279.539C237.187 278.759 236.575 278.193 235.779 277.841C234.984 277.474 234.05 277.29 232.979 277.29C231.725 277.29 230.677 277.512 229.835 277.956C228.994 278.399 228.321 279.011 227.816 279.792C227.311 280.572 226.944 281.467 226.714 282.477C226.5 283.471 226.393 284.527 226.393 285.644ZM242.48 283.303L239.635 284.175C239.65 282.813 239.872 281.505 240.3 280.25C240.744 278.996 241.379 277.879 242.205 276.9C243.047 275.921 244.079 275.148 245.303 274.582C246.527 274.001 247.927 273.71 249.503 273.71C250.834 273.71 252.012 273.886 253.037 274.238C254.077 274.59 254.95 275.133 255.653 275.867C256.372 276.586 256.916 277.512 257.283 278.644C257.65 279.776 257.833 281.123 257.833 282.683V299H253.565V282.637C253.565 281.245 253.343 280.166 252.899 279.401C252.471 278.621 251.859 278.078 251.063 277.772C250.283 277.451 249.35 277.29 248.264 277.29C247.33 277.29 246.504 277.451 245.785 277.772C245.066 278.093 244.462 278.537 243.972 279.103C243.483 279.654 243.108 280.289 242.848 281.008C242.603 281.727 242.48 282.492 242.48 283.303ZM274.563 299.459C272.835 299.459 271.266 299.168 269.859 298.587C268.467 297.99 267.266 297.156 266.256 296.085C265.261 295.014 264.496 293.745 263.961 292.276C263.425 290.807 263.158 289.201 263.158 287.457V286.493C263.158 284.473 263.456 282.675 264.053 281.1C264.649 279.508 265.46 278.162 266.485 277.061C267.51 275.959 268.673 275.125 269.974 274.559C271.274 273.993 272.62 273.71 274.013 273.71C275.787 273.71 277.317 274.016 278.603 274.628C279.903 275.24 280.966 276.097 281.792 277.198C282.619 278.285 283.231 279.57 283.628 281.054C284.026 282.522 284.225 284.129 284.225 285.873V287.778H265.682V284.312H279.979V283.991C279.918 282.89 279.689 281.819 279.291 280.778C278.909 279.738 278.297 278.881 277.455 278.208C276.614 277.535 275.466 277.198 274.013 277.198C273.049 277.198 272.161 277.405 271.351 277.818C270.54 278.216 269.844 278.812 269.262 279.608C268.681 280.403 268.229 281.375 267.908 282.522C267.587 283.67 267.426 284.993 267.426 286.493V287.457C267.426 288.635 267.587 289.744 267.908 290.784C268.245 291.809 268.727 292.712 269.354 293.492C269.997 294.272 270.769 294.884 271.672 295.328C272.59 295.772 273.63 295.994 274.793 295.994C276.292 295.994 277.562 295.688 278.603 295.076C279.643 294.464 280.553 293.645 281.333 292.62L283.904 294.663C283.368 295.473 282.688 296.246 281.861 296.98C281.035 297.715 280.018 298.312 278.809 298.771C277.616 299.229 276.201 299.459 274.563 299.459Z" fill="white"/>
<path id="Please !" d="M98.2021 340.896H89.2749V337.293H98.2021C99.931 337.293 101.331 337.018 102.402 336.467C103.473 335.916 104.253 335.151 104.743 334.172C105.248 333.193 105.5 332.076 105.5 330.821C105.5 329.674 105.248 328.595 104.743 327.585C104.253 326.576 103.473 325.765 102.402 325.153C101.331 324.526 99.931 324.212 98.2021 324.212H90.3076V354H85.8784V320.586H98.2021C100.727 320.586 102.861 321.022 104.605 321.894C106.349 322.766 107.673 323.975 108.575 325.52C109.478 327.05 109.929 328.802 109.929 330.775C109.929 332.917 109.478 334.746 108.575 336.26C107.673 337.775 106.349 338.93 104.605 339.726C102.861 340.506 100.727 340.896 98.2021 340.896ZM119.499 318.75V354H115.23V318.75H119.499ZM136.619 354.459C134.89 354.459 133.322 354.168 131.915 353.587C130.522 352.99 129.321 352.156 128.312 351.085C127.317 350.014 126.552 348.745 126.017 347.276C125.481 345.807 125.213 344.201 125.213 342.457V341.493C125.213 339.473 125.512 337.675 126.108 336.1C126.705 334.508 127.516 333.162 128.541 332.061C129.566 330.959 130.729 330.125 132.029 329.559C133.33 328.993 134.676 328.71 136.068 328.71C137.843 328.71 139.373 329.016 140.658 329.628C141.959 330.24 143.022 331.097 143.848 332.198C144.674 333.285 145.286 334.57 145.684 336.054C146.082 337.522 146.281 339.129 146.281 340.873V342.778H127.738V339.312H142.035V338.991C141.974 337.89 141.744 336.819 141.347 335.778C140.964 334.738 140.352 333.881 139.511 333.208C138.669 332.535 137.522 332.198 136.068 332.198C135.104 332.198 134.217 332.405 133.406 332.818C132.595 333.216 131.899 333.812 131.318 334.608C130.736 335.403 130.285 336.375 129.964 337.522C129.643 338.67 129.482 339.993 129.482 341.493V342.457C129.482 343.635 129.643 344.744 129.964 345.784C130.3 346.809 130.782 347.712 131.41 348.492C132.052 349.272 132.825 349.884 133.728 350.328C134.646 350.772 135.686 350.994 136.849 350.994C138.348 350.994 139.618 350.688 140.658 350.076C141.699 349.464 142.609 348.645 143.389 347.62L145.959 349.663C145.424 350.473 144.743 351.246 143.917 351.98C143.091 352.715 142.073 353.312 140.865 353.771C139.671 354.229 138.256 354.459 136.619 354.459ZM165.879 349.754V336.972C165.879 335.993 165.681 335.143 165.283 334.424C164.9 333.69 164.319 333.124 163.539 332.726C162.758 332.328 161.794 332.129 160.647 332.129C159.576 332.129 158.635 332.313 157.824 332.68C157.029 333.047 156.401 333.529 155.942 334.126C155.499 334.723 155.277 335.365 155.277 336.054H151.031C151.031 335.166 151.261 334.287 151.72 333.415C152.179 332.542 152.837 331.755 153.693 331.051C154.565 330.332 155.606 329.766 156.814 329.353C158.038 328.924 159.4 328.71 160.899 328.71C162.705 328.71 164.296 329.016 165.673 329.628C167.065 330.24 168.151 331.166 168.932 332.405C169.727 333.629 170.125 335.166 170.125 337.018V348.584C170.125 349.41 170.194 350.29 170.332 351.223C170.485 352.156 170.706 352.96 170.997 353.633V354H166.568C166.354 353.51 166.185 352.86 166.063 352.049C165.941 351.223 165.879 350.458 165.879 349.754ZM166.614 338.945L166.66 341.929H162.368C161.16 341.929 160.081 342.028 159.132 342.227C158.184 342.411 157.388 342.694 156.746 343.076C156.103 343.459 155.613 343.941 155.277 344.522C154.94 345.088 154.772 345.754 154.772 346.519C154.772 347.299 154.948 348.01 155.3 348.653C155.652 349.295 156.18 349.808 156.883 350.19C157.602 350.558 158.482 350.741 159.522 350.741C160.823 350.741 161.97 350.466 162.965 349.915C163.959 349.364 164.747 348.691 165.329 347.896C165.925 347.1 166.247 346.327 166.292 345.578L168.105 347.62C167.998 348.263 167.708 348.974 167.233 349.754C166.759 350.535 166.124 351.284 165.329 352.003C164.548 352.707 163.615 353.296 162.529 353.771C161.458 354.229 160.249 354.459 158.903 354.459C157.22 354.459 155.743 354.13 154.474 353.472C153.219 352.814 152.24 351.935 151.536 350.833C150.848 349.716 150.503 348.469 150.503 347.092C150.503 345.761 150.764 344.591 151.284 343.581C151.804 342.556 152.554 341.707 153.533 341.034C154.512 340.345 155.69 339.825 157.067 339.473C158.444 339.121 159.981 338.945 161.68 338.945H166.614ZM191.261 347.414C191.261 346.802 191.124 346.236 190.848 345.715C190.588 345.18 190.045 344.698 189.219 344.27C188.408 343.826 187.184 343.443 185.547 343.122C184.17 342.831 182.923 342.487 181.806 342.089C180.705 341.692 179.764 341.21 178.983 340.644C178.218 340.077 177.629 339.412 177.216 338.647C176.803 337.882 176.597 336.987 176.597 335.962C176.597 334.983 176.811 334.057 177.239 333.185C177.683 332.313 178.303 331.54 179.098 330.867C179.909 330.194 180.881 329.666 182.013 329.284C183.145 328.901 184.407 328.71 185.799 328.71C187.788 328.71 189.486 329.062 190.894 329.766C192.302 330.469 193.38 331.41 194.13 332.588C194.88 333.751 195.254 335.044 195.254 336.467H191.009C191.009 335.778 190.802 335.113 190.389 334.47C189.991 333.812 189.402 333.269 188.622 332.841C187.857 332.412 186.916 332.198 185.799 332.198C184.621 332.198 183.665 332.382 182.931 332.749C182.212 333.101 181.684 333.552 181.347 334.103C181.026 334.654 180.865 335.235 180.865 335.847C180.865 336.306 180.942 336.719 181.095 337.086C181.263 337.438 181.554 337.767 181.967 338.073C182.38 338.364 182.961 338.639 183.711 338.899C184.461 339.16 185.417 339.42 186.58 339.68C188.614 340.139 190.29 340.689 191.605 341.332C192.921 341.975 193.9 342.763 194.543 343.696C195.186 344.629 195.507 345.761 195.507 347.092C195.507 348.179 195.277 349.173 194.818 350.076C194.375 350.978 193.724 351.759 192.868 352.417C192.026 353.059 191.016 353.564 189.838 353.931C188.676 354.283 187.368 354.459 185.914 354.459C183.726 354.459 181.875 354.069 180.36 353.289C178.846 352.508 177.698 351.499 176.918 350.259C176.138 349.02 175.748 347.712 175.748 346.335H180.016C180.077 347.498 180.414 348.423 181.026 349.112C181.638 349.785 182.388 350.267 183.275 350.558C184.162 350.833 185.042 350.971 185.914 350.971C187.077 350.971 188.048 350.818 188.829 350.512C189.624 350.206 190.229 349.785 190.642 349.25C191.055 348.714 191.261 348.102 191.261 347.414ZM211.388 354.459C209.659 354.459 208.091 354.168 206.683 353.587C205.291 352.99 204.09 352.156 203.08 351.085C202.086 350.014 201.321 348.745 200.785 347.276C200.25 345.807 199.982 344.201 199.982 342.457V341.493C199.982 339.473 200.28 337.675 200.877 336.1C201.474 334.508 202.285 333.162 203.31 332.061C204.335 330.959 205.497 330.125 206.798 329.559C208.098 328.993 209.445 328.71 210.837 328.71C212.612 328.71 214.142 329.016 215.427 329.628C216.727 330.24 217.791 331.097 218.617 332.198C219.443 333.285 220.055 334.57 220.453 336.054C220.85 337.522 221.049 339.129 221.049 340.873V342.778H202.506V339.312H216.804V338.991C216.743 337.89 216.513 336.819 216.115 335.778C215.733 334.738 215.121 333.881 214.279 333.208C213.438 332.535 212.29 332.198 210.837 332.198C209.873 332.198 208.986 332.405 208.175 332.818C207.364 333.216 206.668 333.812 206.086 334.608C205.505 335.403 205.054 336.375 204.732 337.522C204.411 338.67 204.25 339.993 204.25 341.493V342.457C204.25 343.635 204.411 344.744 204.732 345.784C205.069 346.809 205.551 347.712 206.178 348.492C206.821 349.272 207.593 349.884 208.496 350.328C209.414 350.772 210.454 350.994 211.617 350.994C213.117 350.994 214.386 350.688 215.427 350.076C216.467 349.464 217.377 348.645 218.158 347.62L220.728 349.663C220.193 350.473 219.512 351.246 218.686 351.98C217.859 352.715 216.842 353.312 215.633 353.771C214.44 354.229 213.025 354.459 211.388 354.459ZM242.713 320.586L242.415 344.568H238.583L238.261 320.586H242.713ZM238.124 351.866C238.124 351.177 238.33 350.596 238.743 350.122C239.172 349.647 239.799 349.41 240.625 349.41C241.436 349.41 242.056 349.647 242.484 350.122C242.928 350.596 243.149 351.177 243.149 351.866C243.149 352.524 242.928 353.09 242.484 353.564C242.056 354.038 241.436 354.275 240.625 354.275C239.799 354.275 239.172 354.038 238.743 353.564C238.33 353.09 238.124 352.524 238.124 351.866Z" fill="white"/>
</g>
</g>
</svg>
