<svg width="307" height="673" viewBox="0 0 307 673" fill="none" xmlns="http://www.w3.org/2000/svg">
<g id="the phone ">
<path id="cadre-phone" d="M290.936 159.877H287.73V58.6106C287.73 43.0661 282.375 28.1583 272.842 17.1666C263.31 6.17503 250.381 0 236.9 0H50.8307C37.3496 0 24.4206 6.17503 14.888 17.1666C5.35537 28.1583 0 43.0661 0 58.6106V614.168C0 629.712 5.35537 644.62 14.888 655.612C24.4206 666.603 37.3496 672.778 50.8307 672.778H236.9C250.381 672.778 263.31 666.603 272.842 655.612C282.375 644.62 287.73 629.712 287.73 614.168V231.961H290.936V159.877Z" fill="#040D21"/>
<g id="screen-one">
<path id="Path 664" d="M239.282 15.0902H214.993C216.11 18.2477 216.536 21.6735 216.235 25.0657C215.933 28.4578 214.912 31.7124 213.262 34.5426C211.613 37.3729 209.385 39.692 206.775 41.2956C204.165 42.8992 201.253 43.7382 198.296 43.7386H91.6996C88.7423 43.7381 85.8305 42.899 83.2206 41.2953C80.6108 39.6917 78.3831 37.3725 76.7336 34.5423C75.0842 31.712 74.0637 28.4575 73.762 25.0653C73.4604 21.6732 73.8868 18.2476 75.0038 15.0902H52.3193C42.2517 15.0902 32.5964 19.7017 25.4776 27.9101C18.3587 36.1185 14.3594 47.2515 14.3594 58.86V613.604C14.3598 625.212 18.3594 636.345 25.4782 644.553C32.597 652.761 42.252 657.372 52.3193 657.372H239.282C244.267 657.373 249.204 656.241 253.809 654.042C258.415 651.842 262.6 648.619 266.125 644.554C269.65 640.49 272.446 635.665 274.354 630.355C276.262 625.045 277.245 619.353 277.245 613.605V613.604V58.86C277.245 47.2515 273.246 36.1185 266.127 27.9101C259.008 19.7017 249.353 15.0902 239.285 15.0902H239.282Z" fill="black"/>
<path id="Path 667" d="M259.147 425.207H32.3603C31.2467 425.205 30.179 424.695 29.3916 423.787C28.6042 422.879 28.1613 421.648 28.1602 420.364V300.294C28.1613 299.009 28.6042 297.778 29.3916 296.87C30.179 295.963 31.2467 295.452 32.3603 295.451H259.147C260.26 295.452 261.328 295.963 262.116 296.87C262.903 297.778 263.346 299.009 263.347 300.294V420.365C263.346 421.649 262.903 422.879 262.115 423.787C261.328 424.695 260.26 425.205 259.147 425.207ZM32.3603 297.388C31.6922 297.389 31.0517 297.695 30.5793 298.24C30.1069 298.785 29.8412 299.523 29.8406 300.294V420.365C29.8412 421.135 30.1069 421.874 30.5793 422.418C31.0517 422.963 31.6922 423.269 32.3603 423.27H259.147C259.815 423.269 260.455 422.963 260.928 422.418C261.4 421.874 261.666 421.135 261.667 420.365V300.294C261.666 299.523 261.4 298.785 260.928 298.24C260.455 297.695 259.815 297.389 259.147 297.388H32.3603Z" fill="black"/>
<path id="Path 668" d="M257.464 269.278H156.673C155.56 269.277 154.492 268.766 153.704 267.858C152.917 266.95 152.474 265.719 152.473 264.435V199.568C152.474 198.284 152.917 197.053 153.704 196.145C154.492 195.237 155.56 194.726 156.673 194.725H257.464C258.578 194.726 259.645 195.237 260.433 196.145C261.22 197.053 261.663 198.284 261.664 199.568V264.434C261.663 265.718 261.22 266.949 260.433 267.858C259.645 268.766 258.578 269.277 257.464 269.278V269.278ZM156.67 196.663C156.002 196.664 155.361 196.971 154.889 197.515C154.416 198.06 154.151 198.799 154.15 199.569V264.435C154.151 265.205 154.416 265.944 154.889 266.488C155.361 267.033 156.002 267.339 156.67 267.34H257.464C258.132 267.339 258.772 267.033 259.245 266.488C259.717 265.944 259.983 265.205 259.984 264.435V199.568C259.983 198.798 259.717 198.059 259.245 197.514C258.772 196.97 258.132 196.663 257.464 196.662L156.67 196.663Z" fill="black"/>
<path id="Path 669" d="M133.155 582.104H32.3603C31.2467 582.103 30.179 581.592 29.3916 580.684C28.6042 579.776 28.1613 578.545 28.1602 577.261V456.222C28.1615 454.938 28.6045 453.707 29.3919 452.8C30.1793 451.892 31.2468 451.381 32.3603 451.38H133.155C134.268 451.381 135.335 451.892 136.123 452.8C136.91 453.707 137.353 454.938 137.355 456.222V577.262C137.354 578.546 136.911 579.777 136.123 580.685C135.336 581.593 134.268 582.104 133.155 582.105V582.104ZM32.3603 453.317C31.6922 453.317 31.0517 453.624 30.5793 454.168C30.1069 454.713 29.8412 455.452 29.8406 456.222V577.262C29.8412 578.032 30.1069 578.771 30.5793 579.316C31.0517 579.86 31.6922 580.167 32.3603 580.167H133.155C133.823 580.167 134.463 579.86 134.935 579.316C135.408 578.771 135.674 578.032 135.674 577.262V456.222C135.674 455.452 135.408 454.713 134.935 454.168C134.463 453.624 133.823 453.317 133.155 453.317H32.3603Z" fill="black"/>
<path id="Path 670" d="M257.464 582.104H156.673C155.56 582.103 154.492 581.592 153.704 580.684C152.917 579.776 152.474 578.545 152.473 577.261V456.222C152.474 454.938 152.917 453.707 153.705 452.8C154.492 451.892 155.56 451.381 156.673 451.38H257.464C258.578 451.381 259.645 451.892 260.433 452.8C261.22 453.708 261.663 454.939 261.664 456.223V577.262C261.663 578.546 261.22 579.777 260.433 580.685C259.645 581.593 258.578 582.104 257.464 582.105V582.104ZM156.673 453.317C156.005 453.317 155.365 453.624 154.892 454.168C154.42 454.713 154.154 455.452 154.153 456.222V577.262C154.154 578.032 154.42 578.771 154.892 579.316C155.365 579.86 156.005 580.167 156.673 580.167H257.464C258.132 580.167 258.772 579.86 259.245 579.316C259.717 578.771 259.983 578.032 259.984 577.262V456.222C259.983 455.452 259.717 454.713 259.245 454.168C258.772 453.624 258.132 453.317 257.464 453.317H156.673Z" fill="black"/>
<path id="Path 677" d="M133.066 269.29H38.5122L60.7605 224.849C61.1593 224.052 61.7329 223.391 62.4237 222.931C63.1145 222.471 63.8981 222.229 64.6958 222.229C65.4935 222.229 66.2771 222.471 66.9679 222.931C67.6587 223.391 68.2323 224.052 68.6311 224.849L78.1368 243.833L94.3021 211.551C94.8014 210.554 95.5195 209.726 96.3844 209.15C97.2492 208.574 98.2303 208.271 99.2291 208.271C100.228 208.271 101.209 208.574 102.074 209.15C102.939 209.726 103.657 210.554 104.156 211.551L133.066 269.29ZM41.4211 267.353H130.152L102.697 212.525C102.345 211.822 101.839 211.239 101.23 210.833C100.621 210.427 99.9293 210.214 99.2256 210.214C98.5218 210.214 97.8305 210.427 97.2211 210.833C96.6117 211.239 96.1057 211.822 95.754 212.525L78.1394 247.708L67.1785 225.818C66.9272 225.316 66.5657 224.899 66.1303 224.609C65.695 224.319 65.2011 224.166 64.6984 224.166C64.1957 224.166 63.7019 224.319 63.2665 224.609C62.8312 224.899 62.4697 225.316 62.2184 225.818L41.4211 267.353Z" fill="black"/>
<path id="Path 678" d="M254.018 269.29H159.465L181.713 224.849C182.112 224.052 182.686 223.391 183.377 222.931C184.067 222.471 184.851 222.229 185.649 222.229C186.446 222.229 187.23 222.471 187.921 222.931C188.612 223.391 189.185 224.052 189.584 224.849L199.089 243.833L215.255 211.551C215.754 210.554 216.472 209.726 217.337 209.15C218.202 208.574 219.183 208.271 220.182 208.271C221.181 208.271 222.162 208.574 223.027 209.15C223.891 209.726 224.61 210.554 225.109 211.551L254.018 269.29ZM162.374 267.353H251.105L223.65 212.525C223.298 211.822 222.792 211.239 222.183 210.833C221.573 210.427 220.882 210.214 220.178 210.214C219.475 210.214 218.783 210.427 218.174 210.833C217.565 211.239 217.059 211.822 216.707 212.525L199.089 247.708L188.128 225.818C187.877 225.316 187.515 224.899 187.08 224.609C186.644 224.319 186.151 224.166 185.648 224.166C185.145 224.166 184.651 224.319 184.216 224.609C183.781 224.899 183.419 225.316 183.168 225.818L162.374 267.353Z" fill="black"/>
<path id="Path 679" d="M133.155 269.278H32.3603C31.2467 269.277 30.179 268.766 29.3916 267.858C28.6042 266.95 28.1613 265.719 28.1602 264.435V199.568C28.1613 198.284 28.6042 197.053 29.3916 196.145C30.179 195.237 31.2467 194.726 32.3603 194.725H133.155C134.268 194.726 135.336 195.237 136.123 196.145C136.911 197.053 137.354 198.284 137.355 199.568V264.434C137.354 265.718 136.911 266.949 136.123 267.857C135.336 268.765 134.268 269.275 133.155 269.277V269.278ZM32.3603 196.663C31.6922 196.664 31.0517 196.971 30.5793 197.515C30.1069 198.06 29.8412 198.799 29.8406 199.569V264.435C29.8412 265.205 30.1069 265.944 30.5793 266.488C31.0517 267.033 31.6922 267.339 32.3603 267.34H133.155C133.823 267.339 134.463 267.033 134.935 266.488C135.408 265.944 135.674 265.205 135.674 264.435V199.568C135.674 198.798 135.408 198.059 134.935 197.514C134.463 196.97 133.823 196.663 133.155 196.662L32.3603 196.663Z" fill="black"/>
<path id="Path 680" d="M53.8381 476.341C53.0819 476.341 52.3567 476.688 51.8219 477.304C51.2872 477.921 50.9868 478.757 50.9868 479.629C50.9868 480.501 51.2872 481.337 51.8219 481.954C52.3567 482.57 53.0819 482.917 53.8381 482.917H111.677C112.434 482.917 113.159 482.57 113.694 481.954C114.228 481.337 114.529 480.501 114.529 479.629C114.529 478.757 114.228 477.921 113.694 477.304C113.159 476.688 112.434 476.341 111.677 476.341H53.8381Z" fill="black"/>
<path id="Path 681" d="M53.8381 495.711C53.0819 495.711 52.3567 496.058 51.8219 496.674C51.2872 497.291 50.9868 498.127 50.9868 498.999C50.9868 499.871 51.2872 500.707 51.8219 501.324C52.3567 501.94 53.0819 502.287 53.8381 502.287H111.677C112.434 502.287 113.159 501.94 113.694 501.324C114.228 500.707 114.529 499.871 114.529 498.999C114.529 498.127 114.228 497.291 113.694 496.674C113.159 496.058 112.434 495.711 111.677 495.711H53.8381Z" fill="black"/>
<path id="Path 682" d="M82.7584 557.143C79.2089 557.143 75.7391 555.929 72.7877 553.655C69.8364 551.382 67.5361 548.15 66.1777 544.369C64.8193 540.587 64.4638 536.427 65.1563 532.412C65.8487 528.398 67.5579 524.711 70.0677 521.817C72.5776 518.923 75.7753 516.952 79.2566 516.153C82.7379 515.355 86.3464 515.764 89.6258 517.33C92.9052 518.896 95.7082 521.549 97.6803 524.952C99.6525 528.354 100.705 532.355 100.705 536.448V536.448C100.7 541.935 98.8075 547.195 95.443 551.074C92.0785 554.954 87.5167 557.137 82.7584 557.143V557.143ZM82.7584 517.691C79.541 517.691 76.3959 518.791 73.7207 520.852C71.0456 522.913 68.9605 525.843 67.7293 529.27C66.498 532.697 66.1759 536.469 66.8036 540.108C67.4313 543.746 68.9806 547.088 71.2556 549.711C73.5306 552.335 76.4292 554.121 79.5848 554.845C82.7404 555.569 86.0112 555.197 88.9837 553.778C91.9562 552.358 94.4968 549.954 96.2843 546.869C98.0718 543.784 99.0258 540.158 99.0258 536.448C99.0203 531.476 97.3046 526.709 94.255 523.193C91.2054 519.677 87.0709 517.699 82.7584 517.693V517.691Z" fill="black"/>
<path id="Path 683" d="M235.993 557.145C236.368 557.145 236.738 557.06 237.084 556.894C237.43 556.729 237.744 556.487 238.009 556.182C238.274 555.876 238.484 555.514 238.627 555.115C238.771 554.716 238.844 554.289 238.844 553.857C238.844 553.425 238.771 552.998 238.627 552.599C238.484 552.2 238.274 551.838 238.009 551.532C237.744 551.227 237.43 550.985 237.084 550.82C236.738 550.654 236.368 550.569 235.993 550.569H178.148C177.391 550.569 176.666 550.916 176.131 551.532C175.597 552.149 175.296 552.985 175.296 553.857C175.296 554.729 175.597 555.565 176.131 556.182C176.666 556.798 177.391 557.145 178.148 557.145H235.993Z" fill="black"/>
<path id="Path 684" d="M235.993 537.773C236.368 537.773 236.738 537.688 237.084 537.523C237.43 537.357 237.744 537.115 238.009 536.81C238.274 536.505 238.484 536.142 238.627 535.743C238.771 535.345 238.844 534.917 238.844 534.485C238.844 534.054 238.771 533.626 238.627 533.227C238.484 532.828 238.274 532.466 238.009 532.161C237.744 531.855 237.43 531.613 237.084 531.448C236.738 531.283 236.368 531.198 235.993 531.198H178.148C177.391 531.198 176.666 531.544 176.131 532.161C175.597 532.777 175.296 533.613 175.296 534.485C175.296 535.357 175.597 536.194 176.131 536.81C176.666 537.427 177.391 537.773 178.148 537.773H235.993Z" fill="black"/>
<path id="Path 685" d="M207.07 476.341C210.62 476.341 214.09 477.555 217.041 479.829C219.992 482.103 222.293 485.335 223.651 489.116C225.009 492.897 225.365 497.058 224.672 501.072C223.98 505.086 222.271 508.774 219.761 511.668C217.251 514.562 214.053 516.533 210.572 517.331C207.09 518.13 203.482 517.72 200.202 516.154C196.923 514.587 194.12 511.935 192.148 508.532C190.176 505.129 189.123 501.128 189.123 497.035V497.035C189.129 491.549 191.022 486.289 194.386 482.409C197.751 478.53 202.312 476.348 207.07 476.341V476.341ZM207.07 515.792C210.288 515.792 213.432 514.691 216.107 512.63C218.782 510.568 220.867 507.639 222.098 504.211C223.328 500.784 223.65 497.012 223.022 493.374C222.394 489.736 220.845 486.394 218.57 483.771C216.294 481.148 213.396 479.362 210.24 478.638C207.085 477.915 203.814 478.286 200.842 479.706C197.869 481.126 195.329 483.53 193.542 486.614C191.754 489.699 190.8 493.325 190.8 497.035V497.035C190.805 502.008 192.521 506.776 195.57 510.292C198.62 513.808 202.755 515.786 207.068 515.792H207.07Z" fill="black"/>
<path id="Path 734" d="M259.147 168.553H32.3603C30.0421 168.553 28.1636 167.307 28.1602 165.771V96.784C28.1602 95.2478 30.0412 94.0034 32.3603 94.0013H259.147C261.465 94.0013 263.344 95.2478 263.347 96.784V165.772C263.344 167.307 261.465 168.551 259.147 168.553ZM32.3603 95.114C30.9695 95.114 29.8423 95.8615 29.8406 96.783V165.771C29.8406 166.692 30.9695 167.439 32.3603 167.44H259.147C260.538 167.44 261.665 166.692 261.667 165.771V96.784C261.667 95.8625 260.538 95.116 259.147 95.115L32.3603 95.114Z" fill="black"/>
</g>
<g id="animate-me">
<path id="Animate me" d="M48.2029 262.941L42.7898 277.844H40.5774L46.8103 261.493H48.2366L48.2029 262.941ZM52.74 277.844L47.3157 262.941L47.282 261.493H48.7083L54.9636 277.844H52.74ZM52.4592 271.791V273.565H43.2727V271.791H52.4592ZM58.9167 268.287V277.844H56.8391V265.693H58.8044L58.9167 268.287ZM58.4226 271.308L57.5579 271.274C57.5653 270.443 57.6889 269.676 57.9285 268.972C58.1681 268.261 58.505 267.643 58.9392 267.119C59.3735 266.595 59.8901 266.191 60.489 265.906C61.0955 265.614 61.7655 265.468 62.4993 265.468C63.0982 265.468 63.6373 265.551 64.1165 265.715C64.5956 265.873 65.0037 266.127 65.3406 266.479C65.685 266.831 65.947 267.288 66.1267 267.849C66.3064 268.403 66.3962 269.081 66.3962 269.882V277.844H64.3074V269.859C64.3074 269.223 64.2138 268.714 64.0266 268.332C63.8394 267.943 63.5662 267.662 63.2068 267.49C62.8474 267.31 62.4057 267.22 61.8816 267.22C61.365 267.22 60.8933 267.329 60.4666 267.546C60.0473 267.763 59.6842 268.062 59.3772 268.444C59.0777 268.826 58.8419 269.264 58.6697 269.758C58.505 270.245 58.4226 270.762 58.4226 271.308ZM71.8093 265.693V277.844H69.7205V265.693H71.8093ZM69.5632 262.47C69.5632 262.133 69.6643 261.848 69.8665 261.616C70.0761 261.384 70.3831 261.268 70.7874 261.268C71.1842 261.268 71.4874 261.384 71.697 261.616C71.9141 261.848 72.0227 262.133 72.0227 262.47C72.0227 262.792 71.9141 263.069 71.697 263.301C71.4874 263.525 71.1842 263.638 70.7874 263.638C70.3831 263.638 70.0761 263.525 69.8665 263.301C69.6643 263.069 69.5632 262.792 69.5632 262.47ZM77.2112 268.107V277.844H75.1223V265.693H77.0989L77.2112 268.107ZM76.7844 271.308L75.8186 271.274C75.8261 270.443 75.9347 269.676 76.1443 268.972C76.3539 268.261 76.6646 267.643 77.0764 267.119C77.4882 266.595 78.0011 266.191 78.615 265.906C79.2289 265.614 79.9402 265.468 80.7488 265.468C81.3178 265.468 81.8419 265.551 82.321 265.715C82.8002 265.873 83.2157 266.123 83.5676 266.468C83.9195 266.812 84.1928 267.254 84.3875 267.793C84.5821 268.332 84.6794 268.983 84.6794 269.747V277.844H82.6018V269.848C82.6018 269.212 82.4932 268.703 82.2761 268.321C82.0665 267.939 81.767 267.662 81.3777 267.49C80.9884 267.31 80.5317 267.22 80.0076 267.22C79.3936 267.22 78.8808 267.329 78.469 267.546C78.0572 267.763 77.7278 268.062 77.4807 268.444C77.2336 268.826 77.054 269.264 76.9417 269.758C76.8368 270.245 76.7844 270.762 76.7844 271.308ZM84.657 270.163L83.2644 270.589C83.2719 269.923 83.3805 269.283 83.5901 268.669C83.8072 268.055 84.1179 267.508 84.5222 267.029C84.934 266.55 85.4394 266.172 86.0383 265.895C86.6373 265.611 87.3223 265.468 88.0935 265.468C88.7449 265.468 89.3214 265.554 89.823 265.727C90.3321 265.899 90.7589 266.165 91.1033 266.524C91.4552 266.876 91.7209 267.329 91.9006 267.883C92.0803 268.437 92.1702 269.096 92.1702 269.859V277.844H90.0813V269.837C90.0813 269.156 89.9727 268.628 89.7556 268.253C89.546 267.872 89.2465 267.606 88.8572 267.456C88.4753 267.299 88.0186 267.22 87.4871 267.22C87.0304 267.22 86.6261 267.299 86.2742 267.456C85.9223 267.613 85.6265 267.83 85.387 268.107C85.1474 268.377 84.9639 268.688 84.8367 269.04C84.7169 269.391 84.657 269.766 84.657 270.163ZM102.48 275.767V269.511C102.48 269.032 102.382 268.617 102.188 268.265C102.001 267.905 101.716 267.628 101.334 267.434C100.952 267.239 100.481 267.142 99.9192 267.142C99.3951 267.142 98.9347 267.231 98.5378 267.411C98.1485 267.591 97.8416 267.827 97.6169 268.119C97.3998 268.411 97.2913 268.725 97.2913 269.062H95.2136C95.2136 268.628 95.3259 268.197 95.5505 267.771C95.7751 267.344 96.0971 266.958 96.5164 266.614C96.9431 266.262 97.4522 265.985 98.0437 265.783C98.6427 265.573 99.309 265.468 100.043 265.468C100.926 265.468 101.705 265.618 102.379 265.917C103.06 266.217 103.592 266.67 103.973 267.276C104.363 267.875 104.557 268.628 104.557 269.534V275.194C104.557 275.598 104.591 276.029 104.658 276.485C104.733 276.942 104.842 277.335 104.984 277.665V277.844H102.817C102.712 277.605 102.629 277.286 102.57 276.89C102.51 276.485 102.48 276.111 102.48 275.767ZM102.839 270.477L102.862 271.937H100.761C100.17 271.937 99.6422 271.986 99.178 272.083C98.7138 272.173 98.3245 272.311 98.01 272.499C97.6956 272.686 97.456 272.922 97.2913 273.206C97.1265 273.483 97.0442 273.809 97.0442 274.183C97.0442 274.565 97.1303 274.913 97.3025 275.228C97.4747 275.542 97.733 275.793 98.0774 275.98C98.4293 276.16 98.8598 276.25 99.3689 276.25C100.005 276.25 100.567 276.115 101.053 275.845C101.54 275.576 101.926 275.246 102.21 274.857C102.502 274.468 102.659 274.09 102.682 273.723L103.569 274.722C103.517 275.037 103.374 275.385 103.142 275.767C102.91 276.148 102.6 276.515 102.21 276.867C101.828 277.212 101.372 277.5 100.84 277.732C100.316 277.957 99.7245 278.069 99.0657 278.069C98.2421 278.069 97.5196 277.908 96.8982 277.586C96.2843 277.264 95.8051 276.833 95.4607 276.294C95.1238 275.748 94.9553 275.138 94.9553 274.464C94.9553 273.812 95.0826 273.24 95.3372 272.746C95.5917 272.244 95.9586 271.828 96.4377 271.499C96.9169 271.162 97.4934 270.908 98.1672 270.735C98.8411 270.563 99.5935 270.477 100.425 270.477H102.839ZM112.913 265.693V267.288H106.343V265.693H112.913ZM108.567 262.739H110.644V274.834C110.644 275.246 110.708 275.557 110.835 275.767C110.962 275.976 111.127 276.115 111.329 276.182C111.531 276.25 111.749 276.283 111.981 276.283C112.153 276.283 112.333 276.268 112.52 276.238C112.714 276.201 112.86 276.171 112.958 276.148L112.969 277.844C112.804 277.897 112.587 277.945 112.318 277.99C112.056 278.043 111.737 278.069 111.363 278.069C110.854 278.069 110.386 277.968 109.959 277.766C109.532 277.563 109.192 277.227 108.937 276.755C108.69 276.276 108.567 275.632 108.567 274.823V262.739ZM120.392 278.069C119.546 278.069 118.779 277.927 118.09 277.642C117.409 277.35 116.821 276.942 116.327 276.418C115.84 275.894 115.466 275.272 115.204 274.554C114.942 273.835 114.811 273.049 114.811 272.195V271.724C114.811 270.735 114.957 269.856 115.249 269.084C115.541 268.306 115.938 267.647 116.439 267.108C116.941 266.569 117.51 266.161 118.146 265.884C118.783 265.607 119.441 265.468 120.123 265.468C120.991 265.468 121.74 265.618 122.369 265.917C123.005 266.217 123.526 266.636 123.93 267.175C124.334 267.707 124.634 268.336 124.828 269.062C125.023 269.781 125.12 270.567 125.12 271.42V272.353H116.046V270.657H123.043V270.5C123.013 269.96 122.9 269.436 122.706 268.927C122.519 268.418 122.219 267.999 121.807 267.669C121.396 267.34 120.834 267.175 120.123 267.175C119.651 267.175 119.217 267.276 118.82 267.479C118.423 267.673 118.083 267.965 117.798 268.354C117.514 268.744 117.293 269.219 117.135 269.781C116.978 270.342 116.9 270.99 116.9 271.724V272.195C116.9 272.772 116.978 273.315 117.135 273.824C117.3 274.325 117.536 274.767 117.843 275.149C118.157 275.531 118.536 275.83 118.977 276.047C119.427 276.264 119.936 276.373 120.505 276.373C121.238 276.373 121.86 276.223 122.369 275.924C122.878 275.624 123.323 275.224 123.705 274.722L124.963 275.722C124.701 276.118 124.368 276.497 123.964 276.856C123.559 277.215 123.061 277.507 122.47 277.732C121.886 277.957 121.193 278.069 120.392 278.069ZM135.318 268.107V277.844H133.229V265.693H135.205L135.318 268.107ZM134.891 271.308L133.925 271.274C133.933 270.443 134.041 269.676 134.251 268.972C134.46 268.261 134.771 267.643 135.183 267.119C135.595 266.595 136.108 266.191 136.721 265.906C137.335 265.614 138.047 265.468 138.855 265.468C139.424 265.468 139.948 265.551 140.427 265.715C140.907 265.873 141.322 266.123 141.674 266.468C142.026 266.812 142.299 267.254 142.494 267.793C142.689 268.332 142.786 268.983 142.786 269.747V277.844H140.708V269.848C140.708 269.212 140.6 268.703 140.383 268.321C140.173 267.939 139.873 267.662 139.484 267.49C139.095 267.31 138.638 267.22 138.114 267.22C137.5 267.22 136.987 267.329 136.575 267.546C136.164 267.763 135.834 268.062 135.587 268.444C135.34 268.826 135.16 269.264 135.048 269.758C134.943 270.245 134.891 270.762 134.891 271.308ZM142.763 270.163L141.371 270.589C141.378 269.923 141.487 269.283 141.697 268.669C141.914 268.055 142.224 267.508 142.629 267.029C143.04 266.55 143.546 266.172 144.145 265.895C144.744 265.611 145.429 265.468 146.2 265.468C146.851 265.468 147.428 265.554 147.929 265.727C148.439 265.899 148.865 266.165 149.21 266.524C149.562 266.876 149.827 267.329 150.007 267.883C150.187 268.437 150.277 269.096 150.277 269.859V277.844H148.188V269.837C148.188 269.156 148.079 268.628 147.862 268.253C147.652 267.872 147.353 267.606 146.964 267.456C146.582 267.299 146.125 267.22 145.594 267.22C145.137 267.22 144.733 267.299 144.381 267.456C144.029 267.613 143.733 267.83 143.493 268.107C143.254 268.377 143.07 268.688 142.943 269.04C142.823 269.391 142.763 269.766 142.763 270.163ZM158.464 278.069C157.618 278.069 156.85 277.927 156.161 277.642C155.48 277.35 154.892 276.942 154.398 276.418C153.912 275.894 153.537 275.272 153.275 274.554C153.013 273.835 152.882 273.049 152.882 272.195V271.724C152.882 270.735 153.028 269.856 153.32 269.084C153.612 268.306 154.009 267.647 154.51 267.108C155.012 266.569 155.581 266.161 156.218 265.884C156.854 265.607 157.513 265.468 158.194 265.468C159.063 265.468 159.811 265.618 160.44 265.917C161.077 266.217 161.597 266.636 162.001 267.175C162.406 267.707 162.705 268.336 162.9 269.062C163.094 269.781 163.192 270.567 163.192 271.42V272.353H154.117V270.657H161.114V270.5C161.084 269.96 160.972 269.436 160.777 268.927C160.59 268.418 160.29 267.999 159.879 267.669C159.467 267.34 158.905 267.175 158.194 267.175C157.722 267.175 157.288 267.276 156.891 267.479C156.495 267.673 156.154 267.965 155.869 268.354C155.585 268.744 155.364 269.219 155.207 269.781C155.05 270.342 154.971 270.99 154.971 271.724V272.195C154.971 272.772 155.05 273.315 155.207 273.824C155.372 274.325 155.607 274.767 155.914 275.149C156.229 275.531 156.607 275.83 157.049 276.047C157.498 276.264 158.007 276.373 158.576 276.373C159.31 276.373 159.931 276.223 160.44 275.924C160.949 275.624 161.395 275.224 161.777 274.722L163.034 275.722C162.772 276.118 162.439 276.497 162.035 276.856C161.631 277.215 161.133 277.507 160.541 277.732C159.957 277.957 159.265 278.069 158.464 278.069Z" fill="white"/>
<path id="Please !" d="M79.3588 350.64H74.9902V348.876H79.3588C80.2049 348.876 80.8899 348.742 81.414 348.472C81.9381 348.203 82.3199 347.828 82.5595 347.349C82.8066 346.87 82.9301 346.323 82.9301 345.709C82.9301 345.148 82.8066 344.62 82.5595 344.126C82.3199 343.632 81.9381 343.235 81.414 342.936C80.8899 342.629 80.2049 342.475 79.3588 342.475H75.4955V357.052H73.3281V340.701H79.3588C80.5942 340.701 81.6386 340.914 82.4921 341.341C83.3456 341.768 83.9933 342.359 84.435 343.115C84.8767 343.864 85.0976 344.721 85.0976 345.687C85.0976 346.735 84.8767 347.63 84.435 348.371C83.9933 349.112 83.3456 349.678 82.4921 350.067C81.6386 350.449 80.5942 350.64 79.3588 350.64ZM89.7807 339.802V357.052H87.6918V339.802H89.7807ZM98.1586 357.277C97.3126 357.277 96.5452 357.135 95.8564 356.85C95.1751 356.558 94.5873 356.15 94.0932 355.626C93.6065 355.102 93.2322 354.48 92.9702 353.762C92.7081 353.043 92.5771 352.257 92.5771 351.403V350.932C92.5771 349.943 92.7231 349.064 93.0151 348.292C93.3071 347.514 93.7039 346.855 94.2055 346.316C94.7071 345.777 95.2761 345.369 95.9125 345.092C96.5489 344.815 97.2078 344.676 97.8891 344.676C98.7576 344.676 99.5063 344.826 100.135 345.125C100.772 345.425 101.292 345.844 101.696 346.383C102.101 346.915 102.4 347.544 102.595 348.27C102.789 348.989 102.887 349.775 102.887 350.628V351.561H93.8124V349.865H100.809V349.708C100.779 349.168 100.667 348.644 100.472 348.135C100.285 347.626 99.9855 347.207 99.5737 346.877C99.1619 346.548 98.6004 346.383 97.8891 346.383C97.4174 346.383 96.9832 346.484 96.5864 346.687C96.1896 346.881 95.8489 347.173 95.5644 347.562C95.2799 347.952 95.059 348.427 94.9018 348.989C94.7446 349.55 94.666 350.198 94.666 350.932V351.403C94.666 351.98 94.7446 352.523 94.9018 353.032C95.0665 353.533 95.3023 353.975 95.6093 354.357C95.9238 354.739 96.3019 355.038 96.7436 355.255C97.1928 355.472 97.7019 355.581 98.2709 355.581C99.0047 355.581 99.6261 355.431 100.135 355.132C100.644 354.832 101.09 354.432 101.472 353.93L102.729 354.93C102.467 355.326 102.134 355.705 101.73 356.064C101.326 356.423 100.828 356.715 100.236 356.94C99.6523 357.165 98.9597 357.277 98.1586 357.277ZM112.477 354.975V348.719C112.477 348.24 112.38 347.825 112.185 347.473C111.998 347.113 111.714 346.836 111.332 346.642C110.95 346.447 110.478 346.35 109.917 346.35C109.393 346.35 108.932 346.439 108.536 346.619C108.146 346.799 107.839 347.035 107.615 347.327C107.398 347.619 107.289 347.933 107.289 348.27H105.211C105.211 347.836 105.324 347.405 105.548 346.979C105.773 346.552 106.095 346.166 106.514 345.822C106.941 345.47 107.45 345.193 108.041 344.991C108.64 344.781 109.307 344.676 110.04 344.676C110.924 344.676 111.703 344.826 112.376 345.125C113.058 345.425 113.589 345.878 113.971 346.484C114.36 347.083 114.555 347.836 114.555 348.742V354.402C114.555 354.806 114.589 355.237 114.656 355.693C114.731 356.15 114.84 356.543 114.982 356.873V357.052H112.814C112.71 356.813 112.627 356.494 112.567 356.098C112.507 355.693 112.477 355.319 112.477 354.975ZM112.837 349.685L112.859 351.145H110.759C110.168 351.145 109.64 351.194 109.176 351.291C108.712 351.381 108.322 351.519 108.008 351.707C107.693 351.894 107.454 352.13 107.289 352.414C107.124 352.691 107.042 353.017 107.042 353.391C107.042 353.773 107.128 354.121 107.3 354.436C107.472 354.75 107.731 355.001 108.075 355.188C108.427 355.368 108.858 355.458 109.367 355.458C110.003 355.458 110.565 355.323 111.051 355.053C111.538 354.784 111.923 354.454 112.208 354.065C112.5 353.676 112.657 353.298 112.68 352.931L113.567 353.93C113.514 354.245 113.372 354.593 113.14 354.975C112.908 355.356 112.597 355.723 112.208 356.075C111.826 356.42 111.369 356.708 110.838 356.94C110.314 357.165 109.722 357.277 109.063 357.277C108.24 357.277 107.517 357.116 106.896 356.794C106.282 356.472 105.803 356.042 105.458 355.502C105.122 354.956 104.953 354.346 104.953 353.672C104.953 353.021 105.08 352.448 105.335 351.954C105.589 351.452 105.956 351.036 106.435 350.707C106.915 350.37 107.491 350.116 108.165 349.943C108.839 349.771 109.591 349.685 110.422 349.685H112.837ZM124.898 353.829C124.898 353.53 124.831 353.253 124.696 352.998C124.569 352.736 124.303 352.5 123.899 352.291C123.502 352.073 122.903 351.886 122.102 351.729C121.428 351.587 120.818 351.418 120.271 351.224C119.732 351.029 119.272 350.793 118.89 350.516C118.516 350.239 118.227 349.913 118.025 349.539C117.823 349.165 117.722 348.727 117.722 348.225C117.722 347.746 117.827 347.293 118.037 346.866C118.254 346.439 118.557 346.061 118.946 345.732C119.343 345.403 119.818 345.144 120.372 344.957C120.927 344.77 121.544 344.676 122.226 344.676C123.199 344.676 124.03 344.848 124.719 345.193C125.407 345.537 125.935 345.998 126.302 346.574C126.669 347.143 126.852 347.776 126.852 348.472H124.775C124.775 348.135 124.674 347.81 124.472 347.495C124.277 347.173 123.989 346.907 123.607 346.698C123.233 346.488 122.772 346.383 122.226 346.383C121.649 346.383 121.181 346.473 120.822 346.653C120.47 346.825 120.212 347.046 120.047 347.315C119.89 347.585 119.811 347.869 119.811 348.169C119.811 348.394 119.848 348.596 119.923 348.775C120.006 348.948 120.148 349.109 120.35 349.258C120.552 349.401 120.837 349.535 121.204 349.663C121.57 349.79 122.038 349.917 122.607 350.044C123.603 350.269 124.423 350.539 125.067 350.853C125.711 351.167 126.19 351.553 126.504 352.01C126.819 352.466 126.976 353.021 126.976 353.672C126.976 354.203 126.864 354.69 126.639 355.132C126.422 355.574 126.104 355.955 125.685 356.277C125.273 356.592 124.779 356.839 124.202 357.019C123.633 357.191 122.993 357.277 122.282 357.277C121.211 357.277 120.305 357.086 119.564 356.704C118.823 356.322 118.261 355.828 117.879 355.222C117.497 354.615 117.307 353.975 117.307 353.301H119.395C119.425 353.87 119.59 354.323 119.89 354.66C120.189 354.99 120.556 355.225 120.99 355.368C121.424 355.502 121.855 355.57 122.282 355.57C122.851 355.57 123.326 355.495 123.708 355.345C124.097 355.195 124.393 354.99 124.595 354.728C124.797 354.465 124.898 354.166 124.898 353.829ZM134.747 357.277C133.901 357.277 133.134 357.135 132.445 356.85C131.764 356.558 131.176 356.15 130.682 355.626C130.195 355.102 129.821 354.48 129.559 353.762C129.297 353.043 129.166 352.257 129.166 351.403V350.932C129.166 349.943 129.312 349.064 129.604 348.292C129.896 347.514 130.293 346.855 130.794 346.316C131.296 345.777 131.865 345.369 132.501 345.092C133.138 344.815 133.797 344.676 134.478 344.676C135.346 344.676 136.095 344.826 136.724 345.125C137.36 345.425 137.881 345.844 138.285 346.383C138.689 346.915 138.989 347.544 139.184 348.27C139.378 348.989 139.476 349.775 139.476 350.628V351.561H130.401V349.865H137.398V349.708C137.368 349.168 137.256 348.644 137.061 348.135C136.874 347.626 136.574 347.207 136.163 346.877C135.751 346.548 135.189 346.383 134.478 346.383C134.006 346.383 133.572 346.484 133.175 346.687C132.778 346.881 132.438 347.173 132.153 347.562C131.869 347.952 131.648 348.427 131.491 348.989C131.333 349.55 131.255 350.198 131.255 350.932V351.403C131.255 351.98 131.333 352.523 131.491 353.032C131.655 353.533 131.891 353.975 132.198 354.357C132.513 354.739 132.891 355.038 133.332 355.255C133.782 355.472 134.291 355.581 134.86 355.581C135.594 355.581 136.215 355.431 136.724 355.132C137.233 354.832 137.679 354.432 138.06 353.93L139.318 354.93C139.056 355.326 138.723 355.705 138.319 356.064C137.914 356.423 137.417 356.715 136.825 356.94C136.241 357.165 135.549 357.277 134.747 357.277ZM160.261 323.638L159.962 347.62H156.13L155.809 323.638H160.261ZM155.671 354.918C155.671 354.229 155.877 353.648 156.29 353.174C156.719 352.7 157.346 352.462 158.172 352.462C158.983 352.462 159.603 352.7 160.031 353.174C160.475 353.648 160.697 354.229 160.697 354.918C160.697 355.576 160.475 356.142 160.031 356.616C159.603 357.09 158.983 357.328 158.172 357.328C157.346 357.328 156.719 357.09 156.29 356.616C155.877 356.142 155.671 355.576 155.671 354.918Z" fill="white"/>
</g>
</g>
</svg>
